<?xml version="1.0" encoding="UTF-8"?>
<svg width="464.23pt" height="71.696pt" version="1.1" viewBox="0 0 464.23 71.696" xmlns="http://www.w3.org/2000/svg" xmlns:xlink="http://www.w3.org/1999/xlink">
<defs>
<symbol id="b" overflow="visible">
<path d="m10.469-2.9844 3.875 1.8438 6.0781 1.1406h11.875l4.2188-0.79688 2.9062-1.0469 3.3438-2.2031 0.70312-0.875 2.1094-1.6719 1.4062-3.5312 1.0625-1.5781 0.17188-2.9062 0.625-3.5156-0.4375-3.5156-0.70312-1.4219-0.625-0.70312v-1.6719l-0.70312-2.1875-2.2812-1.9375-0.26562-0.96875-1.9375-2.2969-1.8438-0.78125-3.7969-3.0938-5.0156-2.4531-2.375-1.6719-3.9531-0.70312-1.1406-0.53125-0.26562-2.4688-2.9062-2.2031-1.1406-2.0156 0.26562-0.4375-0.35938-1.6719-1.0625-1.7656 0.89062-2.6406 1.0469-1.8438 1.4062-1.5938 3.1719-2.1094-0.078125-0.53125 0.875-0.4375 2.7344-0.17188 3.1562 0.4375 3.9688 1.2344 2.9062 0.625h2.4531l0.79688-0.35938v-1.6719l1.2344-2.4688-0.4375-1.2344-0.89062-0.875-4.8281-1.8438-2.5625-0.53125-4.5781-0.53125h-3.1562l-3.0938 0.53125-1.4844 0.60938-1.2344 1.1562-5.1875 1.75-0.96875 0.96875-0.79688 3.0781-1.5 0.89062-0.70312 1.75 0.70312 2.2031-1.5 0.875v5.8125l0.45312 1.1406 0.78125 0.79688 0.35938 1.9375 0.53125 1.2344 2.1094 3.1719 1.8438 2.0156 1.9375 1.5 5.9844 3.3438 6.0781 3.9531 3.1562 1.2344 2.375 0.4375-0.78125 0.96875 1.2344 1.6719 2.7188 1.5 0.17188 1.6719 1.6719 3.9531-0.25 0.45312-0.53125 2.5469v1.7656l-2.4688 2.9844-2.375 2.1094-2.2812 1.1406-4.2344 0.625h-3.0781l-4.4844-0.53125-3.875-0.875-2.9062-1.6719-1.75-0.625-1.9375 0.35938-2.2031 3.3438 0.26562 1.7656z"/>
</symbol>
<symbol id="a" overflow="visible">
<path d="m25.953-2.375 2.2031 1.3125 1.4062 0.09375 1.7656-0.60938 0.79688-1.5 0.875-3.875-0.26562-3.0781 0.35938-3.4375-1.4062-2.9062 1.0469 0.26562 0.35938-2.1875v-4.4062l-0.70312-0.875 0.70312-2.8281v-25.688l-0.35938-0.4375v-1.8594l0.875-2.7188 0.70312-0.96875 2.3906-1.4062 2.8906-0.70312 3.3438-0.26562h5.2031l2.0156-0.625-1.1406-1.8438 1.2344-0.53125 0.96875-1.75-0.26562-0.79688-2.4688-1.1406h-2.9844l-4.4844-0.89062-3.7031 0.45312h-7.9219l-1.5781 0.34375-6.3438-0.60938h-8.1875l-5.0938 1.4844-1.1406 0.96875-0.26562 1.6719 0.51562 0.09375 3.3438 2.0312-0.078125 0.96875h6.5156l3.6875 0.875 2.5469 0.96875 1.2344 0.875 0.26562 2.9062 1.3281 1.4062-0.89062 2.1094v11.438l0.26562 0.70312-0.34375 2.5625 1.0469 2.5469-0.78125 1.9375 0.17188 2.2031 0.34375 0.875v5.0156l-0.60938 1.5938v6.5l0.60938 0.35938-0.96875 2.9844v7.1406l0.71875 0.78125z"/>
</symbol>
<symbol id="f" overflow="visible">
<path d="m7.5625-2.5469 1.1562 1.0469 2.7188 0.4375 1.8438-0.17188 1.5938-1.0469 2.4688-6.0781-0.45312-0.875 3.0781-3.9688 1.5-0.875 7.5781-0.79688h6.1562l2.2031 1.0625 1.2188 1.4062 3.6094 7.4844v1.1406l1.6719 2.6406 2.6406 0.53125 1.3281-0.09375 1.8438-1.5 0.4375-3.3438-0.34375-1.1406-0.89062-1.5 0.26562-2.1094-0.4375-1.9375-0.875-1.5-0.625-0.60938 0.09375-1.4062-1.5-6.6094-1.75-2.1094 0.26562-1.4062v-2.9844l-1.4219-2.8281-1.0469-0.95312 0.34375-1.1562v-1.5781l-2.2812-7.125-0.875-1.5938-0.53125-4.4844-1.7656-4.0469-1.5-7.9219-2.0156-2.9844-0.17188-2.1094-2.0312-1.1562-1.3125-0.26562h-1.5l-1.9375 0.53125-1.5 0.70312-0.70312 1.2344v2.2031l-1.0469 0.96875-1.1562 2.7188-0.78125 3.2656 0.60938 0.96875-0.70312 1.6719-0.34375 0.34375-0.79688 1.7656 0.34375 1.5781-1.3125 2.375-0.26562 2.125 0.53125 0.17188-1.7656 3.4219-1.4062 4.0625v2.2812l-1.2344 2.0312-0.34375 3.5938-0.79688 0.625-0.53125 2.4688v1.0469l-1.1406 2.2031-0.4375 1.7656v1.3125l-0.96875 2.2031v2.0156l-0.4375 1.3281-0.96875 1.6719v3.0781l-1.2344 1.6719v1.6719l-0.70312 1.6719zm14.438-21.391-0.09375-1.2344 1.2344-0.96875-0.78125-0.875v-2.1094l0.70312-2.0312 0.4375-2.2031-1.0625-0.70312 1.6719-1.6719 0.53125-1.0469 0.79688-4.4844 0.26562 0.4375 0.78125-2.0312-0.4375-0.70312 1.0625-1.5 2.4531-0.875 0.625 0.53125 1.5 3.1719 1.75 5.5312 1.9375 8.5469 0.4375 3.25-1.5781 1.5-1.2344 0.34375h-8.8906z"/>
</symbol>
<symbol id="e" overflow="visible">
<path d="m13.375-4.6562 2.8125 2.1094 3.7031 1.75 3.875 0.96875 3.1562 0.35938h4.3125l3.875-0.625 2.8125-1.1406 6.7812-4.2188 0.79688-1.5 2.5469-2.9844 0.4375-1.0625 0.17188-2.2031 1.5938-4.8438 0.17188-1.8438-0.875-1.8438 0.79688-3.1719-0.26562-1.5781 0.34375-3.1719v-13.375l-0.26562-3.3438 0.26562-2.5469v-3.3438l-0.34375-4.5781v-3.7812l0.34375-1.0625v-1.6719l-0.875-2.1094-1.2344-1.5-2.8125-0.60938-1.7656 0.70312 0.4375 1.6719-2.1094 1.8438v3.5156l0.4375 4.1406-0.53125 1.7656v4.3906l-0.25 2.2969 0.34375 4.2188v4.3125l-0.17188 0.60938 0.875 2.125-0.96875 3.25 0.53125 2.2812-0.53125 2.2969 0.4375 0.53125 0.625 1.4844-0.89062 1.7656v7.6562l-1.2188 1.9375-0.89062 2.7188-5.625 4.3125-2.8125 0.53125h-6.6875l-3.1719-2.0156-2.8125-2.9062-2.0312-3.0781-0.53125-1.1562v-3.6875l-0.34375-3.7031 0.34375-4.0469-1.4844-2.9844 1.4844-1.4062v-6.6875l-0.70312-0.79688 0.70312-2.5469-1.1406-2.9062 0.875-1.8438 0.1875-1.1562-0.1875-1.0469-1.3125-1.1562 1.5-0.875-0.625-2.375 0.70312-0.96875-0.34375-4.6562 0.26562-1.2344v-1.9375l-0.625-0.53125-1.0469-3.7812-4.5-0.53125-1.2188 0.875-0.35938 2.6406-0.4375 1.3281v2.4688l0.26562 0.875-0.35938 1.6719v3.1719l-0.34375 1.9375 0.34375 2.9844v11.875l0.70312 2.0312-1.0469 2.8125 0.78125 2.1094v3.7969l-0.78125 3.4219 0.78125 2.0312-0.51562 0.4375v3.0781l1.1406 0.96875-0.625 1.9375 0.35938 2.0156 2.9844 5.7188z"/>
</symbol>
<symbol id="d" overflow="visible">
<path d="m25.875-0.4375 2.1094 0.26562 3.9531-0.35938 1.5938-1.3125-0.26562-1.0625 0.17188-0.875 1.5938-1.0625 0.51562-2.9062-0.60938-2.1875-1.4062-1.7656-1.3281-0.96875-1.2344-0.53125-2.0156-0.17188-1.1406 0.17188-3.1719 1.4062-1.5781 1.2344-0.79688 3.0781 0.26562 2.8281zm-3.7812-39.609 3.1562 2.7344 2.6406 0.875 1.1562 0.09375 2.8125-0.4375 1.9375-1.5 0.51562-2.1094 1.2344-0.875v-2.2969l-0.60938-2.4688-0.79688-1.3125-1.6719-1.2344-1.5-0.34375h-2.0156l-4.8438 1.3125-1.2344 1.7656v2.375l-0.78125 0.875z"/>
</symbol>
<symbol id="c" overflow="visible">
<path d="m13.375-4.9219 1.9375 1.4062 3.5156 1.0469 1.8594 1.5 5.8906 1.4062h7.4844l3.8594-1.1406 2.8281-2.1094 2.1094-0.79688 2.2812-1.5 0.4375-0.51562 0.26562-1.0625 1.7656-1.5 0.96875-1.5 2.0156-6.8594 0.625-4.2188v-4.3125l-1.0625-0.625v-3.4219l0.35938 0.17188-0.53125-2.1094-1.8438-3.7031-1.6719-2.6406-2.6406-2.5469-1.8594-0.60938-0.95312-1.2344-2.9062-1.5-3.9688-0.875h-7.8281l-1.5-0.53125-3.6094 0.79688-1.4844-0.53125 0.78125-1.5-0.4375-2.8125 0.625-1.0625 1.2188-1.2344 1.5938-4.3125 1.6719-1.4062 4.4844-5.1875 1.4062-2.6406 0.4375-1.8438-0.53125-0.79688-1.5781-0.53125h-1.9375l-2.9844 0.70312-1.4062 0.96875-5.0156 5.9844 1.6719 0.89062-2.2969 0.60938-2.9062 3.7031-1.5781 2.8906-0.35938 2.125 0.26562 1.6719-2.2031 1.3125-0.25 0.96875 0.60938 1.5781-1.7656 2.6406-1.0469 3.2656-0.09375 1.2344 0.625 2.9844-0.70312 0.17188-0.625 2.375 0.09375 0.89062-0.79688 3.0781 0.53125 2.8125-0.53125 3.7812 0.875 5.9844 0.96875 2.2031 1.5 1.7656-0.79688 0.53125 1.5 2.1094 1.6719 1.5781 0.17188 0.96875zm11-3.2656-3.875-2.1094-1.8438-1.7656-3.9531-9.4062 0.4375-1.2344v-2.2812l0.70312-3.1719 1.1406-2.2969 1.5781-1.8438 1.5938-1.2344-0.70312-1.3125 0.70312-0.4375 3.3438-0.89062 4.75-0.34375h5.3594l2.6406 1.1406 1.4062 1.8438 2.6406 2.6406 1.2344 2.8125 0.89062 1.0625v4.0469l0.4375 0.70312v1.5l-0.625 3.9531-1.6719 3.6094-1.4844 1.6719-3.1719 2.4688-1.5938 0.875 0.53125 0.79688-0.34375 0.4375h-4.4062l-2.6406 0.35938-3.9531-0.35938z"/>
</symbol>
</defs>
<g>
<use y="70.168" xlink:href="#b"/>
<use x="57.903993" y="70.168" xlink:href="#a"/>
<use x="115.807987" y="70.168" xlink:href="#f"/>
<use x="173.71198" y="70.168" xlink:href="#a"/>
<use x="231.615974" y="70.168" xlink:href="#e"/>
<use x="289.519967" y="70.168" xlink:href="#b"/>
<use x="347.423961" y="70.168" xlink:href="#d"/>
<use x="405.327954" y="70.168" xlink:href="#c"/>
</g>
</svg>
