<?xml version="1.0" encoding="UTF-8" standalone="no"?>
<svg xmlns="http://www.w3.org/2000/svg" height="71.696pt" width="464.23pt" version="1.1" xmlns:xlink="http://www.w3.org/1999/xlink" viewBox="0 0 464.232 71.696">
<defs>
<symbol id="b" overflow="visible">
<path d="m10.469-2.9844l3.875 1.8438 6.078 1.1406h11.875l4.219-0.79688 2.906-1.0469 3.344-2.2031 0.703-0.875 2.109-1.6719 1.406-3.5312 1.063-1.578 0.172-2.906 0.625-3.516-0.438-3.516-0.703-1.421-0.625-0.704v-1.672l-0.703-2.187-2.281-1.937-0.266-0.969-1.937-2.297-1.844-0.781-3.797-3.094-5.016-2.453-2.375-1.672-3.953-0.703-1.14-0.531-0.266-2.469-2.906-2.203-1.141-2.016 0.266-0.438-0.36-1.671-1.062-1.766 0.891-2.641 1.046-1.843 1.407-1.594 3.171-2.109-0.078-0.532 0.875-0.437 2.735-0.172 3.156 0.437 3.969 1.235 2.906 0.625h2.453l0.797-0.36v-1.672l1.234-2.468-0.437-1.235-0.891-0.875-4.828-1.843-2.562-0.532-4.579-0.531h-3.156l-3.094 0.531-1.484 0.61-1.234 1.156-5.188 1.75-0.968 0.969-0.797 3.078-1.5 0.89-0.703 1.75 0.703 2.204-1.5 0.875v5.812l0.453 1.141 0.781 0.797 0.359 1.937 0.532 1.234 2.109 3.172 1.844 2.016 1.937 1.5 5.985 3.344 6.078 3.953 3.156 1.234 2.375 0.438-0.781 0.969 1.234 1.671 2.719 1.5 0.172 1.672 1.672 3.953-0.25 0.454-0.532 2.546v1.766l-2.468 2.984-2.375 2.1098-2.282 1.1406-4.234 0.625h-3.078l-4.485-0.5313-3.874-0.875-2.907-1.6721-1.75-0.625-1.937 0.36-2.2034 3.3434 0.2656 1.7656z"/>
</symbol>
<symbol id="a" overflow="visible">
<path d="m25.953-2.375l2.203 1.3125 1.406 0.09375 1.766-0.60935 0.797-1.5 0.875-3.875-0.266-3.0779 0.36-3.438-1.406-2.906 1.046 0.266 0.36-2.188v-4.406l-0.703-0.875 0.703-2.828v-25.688l-0.36-0.437v-1.86l0.875-2.718 0.703-0.969 2.391-1.406 2.891-0.704 3.344-0.265h5.203l2.015-0.625-1.14-1.844 1.234-0.531 0.969-1.75-0.266-0.797-2.469-1.141h-2.984l-4.484-0.89-3.704 0.453h-7.921l-1.579 0.344-6.343-0.61h-8.188l-5.0935 1.485-1.1406 0.968-0.2657 1.672 0.5157 0.094 3.3441 2.031-0.079 0.969h6.516l3.688 0.875 2.546 0.969 1.235 0.875 0.265 2.906 1.329 1.406-0.891 2.11v11.437l0.266 0.703-0.344 2.563 1.047 2.547-0.781 1.937 0.171 2.203 0.344 0.875v5.016l-0.609 1.594v6.5l0.609 0.359-0.969 2.984v7.141l0.719 0.7812z"/>
</symbol>
<symbol id="f" overflow="visible">
<path d="m7.5625-2.5469l1.1563 1.0469 2.7192 0.4375 1.843-0.1719 1.594-1.0468 2.469-6.0782-0.453-0.875 3.078-3.9686 1.5-0.875 7.578-0.797h6.156l2.203 1.063 1.219 1.406 3.609 7.4841v1.1407l1.672 2.6406 2.641 0.53122 1.328-0.09374 1.844-1.5 0.437-3.3438-0.344-1.1406-0.89-1.5 0.266-2.1095-0.438-1.937-0.875-1.5-0.625-0.61 0.094-1.406-1.5-6.609-1.75-2.11 0.265-1.406v-2.984l-1.421-2.829-1.047-0.953 0.343-1.156v-1.578l-2.281-7.125-0.875-1.594-0.531-4.484-1.766-4.047-1.5-7.922-2.015-2.984-0.172-2.11-2.032-1.156-1.312-0.265h-1.5l-1.938 0.531-1.5 0.703-0.703 1.234v2.203l-1.047 0.969-1.156 2.719-0.781 3.265 0.609 0.969-0.703 1.672-0.343 0.344-0.797 1.765 0.343 1.579-1.312 2.375-0.266 2.125 0.532 0.171-1.766 3.422-1.406 4.063v2.281l-1.235 2.031-0.343 3.594-0.797 0.625-0.532 2.469v1.047l-1.14 2.203-0.438 1.765v1.313l-0.969 2.203v2.016l-0.437 1.328-0.9688 1.672v3.0779l-1.2343 1.6719v1.6718l-0.7031 1.6719zm14.438-21.391l-0.094-1.234 1.235-0.969-0.782-0.875v-2.109l0.703-2.031 0.438-2.203-1.062-0.703 1.671-1.672 0.532-1.047 0.797-4.485 0.265 0.438 0.781-2.031-0.437-0.703 1.062-1.5 2.453-0.876 0.626 0.532 1.5 3.172 1.75 5.531 1.937 8.547 0.437 3.25-1.578 1.5-1.234 0.344h-8.891z"/>
</symbol>
<symbol id="e" overflow="visible">
<path d="m13.375-4.6562l2.813 2.1093 3.703 1.75 3.875 0.96878 3.156 0.35937h4.312l3.875-0.625 2.813-1.1406 6.781-4.2187 0.797-1.5 2.547-2.9844 0.437-1.0625 0.172-2.203 1.594-4.844 0.172-1.844-0.875-1.843 0.797-3.172-0.266-1.578 0.344-3.172v-13.375l-0.266-3.344 0.266-2.547v-3.344l-0.344-4.578v-3.781l0.344-1.063v-1.671l-0.875-2.11-1.235-1.5-2.812-0.609-1.766 0.703 0.438 1.672-2.11 1.844v3.515l0.438 4.141-0.531 1.765v4.391l-0.25 2.297 0.343 4.219v4.312l-0.171 0.61 0.875 2.125-0.969 3.25 0.531 2.281-0.531 2.297 0.437 0.531 0.625 1.484-0.89 1.766v7.656l-1.219 1.938-0.891 2.719-5.625 4.312-2.812 0.5312h-6.688l-3.172-2.0156-2.812-2.9066-2.031-3.078-0.531-1.156v-3.687l-0.344-3.704 0.344-4.046-1.485-2.985 1.485-1.406v-6.688l-0.704-0.797 0.704-2.546-1.141-2.907 0.875-1.843 0.187-1.157-0.187-1.047-1.313-1.156 1.5-0.875-0.625-2.375 0.704-0.968-0.344-4.657 0.265-1.234v-1.938l-0.625-0.531-1.046-3.781-4.5005-0.531-1.2187 0.875-0.3594 2.64-0.4375 1.328v2.469l0.2656 0.875-0.3594 1.672v3.172l-0.3437 1.937 0.3437 2.985v11.875l0.7031 2.031-1.0468 2.813 0.7812 2.109v3.797l-0.7812 3.422 0.7812 2.031-0.5156 0.437v3.078l1.1406 0.969-0.625 1.938 0.3594 2.015 2.984 5.7191z"/>
</symbol>
<symbol id="d" overflow="visible">
<path d="m25.875-0.4375l2.109 0.26562 3.954-0.35937 1.593-1.3126-0.265-1.0624 0.172-0.875 1.593-1.0626 0.516-2.9062-0.609-2.1875-1.407-1.7655-1.328-0.969-1.234-0.531-2.016-0.172-1.141 0.172-3.171 1.406-1.579 1.235-0.796 3.0776 0.265 2.8282zm-3.781-39.61l3.156 2.735 2.641 0.874 1.156 0.094 2.812-0.437 1.938-1.5 0.515-2.11 1.235-0.875v-2.296l-0.609-2.469-0.797-1.313-1.672-1.234-1.5-0.344h-2.016l-4.844 1.313-1.234 1.765v2.375l-0.781 0.875z"/>
</symbol>
<symbol id="c" overflow="visible">
<path d="m13.375-4.9219l1.937 1.4063 3.516 1.0468 1.86 1.5 5.89 1.4063h7.484l3.86-1.1406 2.828-2.1094 2.109-0.7969 2.282-1.5 0.437-0.5156 0.266-1.0625 1.765-1.5 0.969-1.5 2.016-6.8595 0.625-4.219v-4.312l-1.063-0.625v-3.422l0.36 0.172-0.532-2.109-1.843-3.704-1.672-2.64-2.641-2.547-1.859-0.609-0.953-1.235-2.907-1.5-3.968-0.875h-7.829l-1.5-0.531-3.609 0.797-1.484-0.532 0.781-1.5-0.438-2.812 0.626-1.062 1.218-1.235 1.594-4.312 1.672-1.407 4.484-5.187 1.406-2.641 0.438-1.844-0.531-0.796-1.578-0.532h-1.938l-2.984 0.704-1.407 0.968-5.015 5.985 1.672 0.89-2.297 0.61-2.906 3.703-1.578 2.89-0.36 2.125 0.266 1.672-2.203 1.313-0.25 0.968 0.609 1.579-1.7656 2.64-1.0469 3.266-0.0937 1.234 0.625 2.985-0.7032 0.172-0.625 2.374 0.0938 0.891-0.7969 3.078 0.5313 2.813-0.5313 3.781 0.875 5.984 0.9687 2.203 1.4998 1.766-0.7966 0.531 1.4996 2.1098 1.672 1.5781 0.172 0.9687zm11-3.2656l-3.875-2.1095-1.844-1.765-3.953-9.407 0.438-1.234v-2.281l0.703-3.172 1.14-2.297 1.578-1.844 1.594-1.234-0.703-1.313 0.703-0.437 3.344-0.891 4.75-0.344h5.359l2.641 1.141 1.406 1.844 2.641 2.64 1.234 2.813 0.891 1.062v4.047l0.437 0.703v1.5l-0.625 3.954-1.672 3.609-1.484 1.672-3.172 2.4685-1.594 0.875 0.532 0.7969-0.344 0.4375h-4.406l-2.641 0.3593-3.953-0.3593z"/>
</symbol>
</defs>
<g>
<use y="70.168" x="0" xlink:href="#b"/>
<use y="70.168" x="57.903993" xlink:href="#a"/>
<use y="70.168" x="115.807987" xlink:href="#f"/>
<use y="70.168" x="173.71198" xlink:href="#a"/>
<use y="70.168" x="231.615974" xlink:href="#e"/>
<use y="70.168" x="289.519967" xlink:href="#b"/>
<use y="70.168" x="347.423961" xlink:href="#d"/>
<use y="70.168" x="405.327954" xlink:href="#c"/>
</g>
</svg>
