<?xml version="1.0" encoding="UTF-8"?>
<svg width="432pt" height="216pt" version="1.1" viewBox="0 0 432 216" xmlns="http://www.w3.org/2000/svg" xmlns:xlink="http://www.w3.org/1999/xlink">
<metadata>
<rdf:RDF xmlns:rdf="http://www.w3.org/1999/02/22-rdf-syntax-ns#" xmlns:cc="http://creativecommons.org/ns#" xmlns:dc="http://purl.org/dc/elements/1.1/" xmlns:xmpRights="http://ns.adobe.com/xap/1.0/rights/">
<rdf:Description>
<cc:attributionName>John Neffenger</cc:attributionName>
<cc:license rdf:resource="https://creativecommons.org/licenses/by-sa/4.0/"/>
<dc:title>OpenJDK Social Preview</dc:title>
<xmpRights:Marked>True</xmpRights:Marked>
<xmpRights:UsageTerms>This work is licensed under the Creative Commons Attribution-ShareAlike 4.0 International License.</xmpRights:UsageTerms>
<xmpRights:WebStatement rdf:resource="https://github.com/jgneff/openjdk"/>
</rdf:Description>
</rdf:RDF>
</metadata>
<style>
path, text {fill: #007396;}
@media (prefers-color-scheme: dark) {
  path, text {fill: #ed8b00;}
}
</style>
<defs>
<symbol id="bb" overflow="visible">
<path d="m14.297-23.516c0 2.3125 0.28125 4.3984 0.84375 6.25 0.5625 1.8438 1.375 3.4336 2.4375 4.7656 1.0625 1.3359 2.3594 2.3672 3.8906 3.0938 1.5391 0.71875 3.3047 1.0781 5.2969 1.0781 1.9375 0 3.6797-0.35938 5.2344-1.0781 1.5625-0.72656 2.875-1.7578 3.9375-3.0938 1.0625-1.332 1.875-2.9219 2.4375-4.7656 0.57031-1.8516 0.85938-3.9375 0.85938-6.25 0-2.3008-0.28906-4.3906-0.85938-6.2656-0.5625-1.875-1.375-3.4727-2.4375-4.7969-1.0625-1.332-2.375-2.3594-3.9375-3.0781-1.5547-0.72656-3.2969-1.0938-5.2344-1.0938-1.9922 0-3.7578 0.375-5.2969 1.125-1.5312 0.74219-2.8281 1.7773-3.8906 3.1094-1.0625 1.3359-1.875 2.9375-2.4375 4.8125s-0.84375 3.9375-0.84375 6.1875zm35.844 0c0 4.0234-0.60156 7.5586-1.7969 10.609-1.1992 3.0547-2.8398 5.6055-4.9219 7.6562-2.0742 2.0547-4.5469 3.6016-7.4219 4.6406-2.8672 1.0391-5.9453 1.5625-9.2344 1.5625-3.2109 0-6.2344-0.52344-9.0781-1.5625s-5.3281-2.5859-7.4531-4.6406c-2.125-2.0508-3.7969-4.6016-5.0156-7.6562-1.2188-3.0508-1.8281-6.5859-1.8281-10.609 0-4.0078 0.62891-7.5391 1.8906-10.594 1.2695-3.0508 2.9766-5.6133 5.125-7.6875 2.1445-2.082 4.6289-3.6406 7.4531-4.6719 2.8203-1.0391 5.7891-1.5625 8.9062-1.5625 3.207 0 6.2344 0.52344 9.0781 1.5625 2.8438 1.0312 5.3203 2.5898 7.4375 4.6719 2.125 2.0742 3.7969 4.6367 5.0156 7.6875 1.2266 3.0547 1.8438 6.5859 1.8438 10.594z"/>
</symbol>
<symbol id="ba" overflow="visible">
<path d="m27.578-17.547c0-3.1133-0.70312-5.6094-2.1094-7.4844-1.3984-1.875-3.4766-2.8125-6.2344-2.8125-0.89844 0-1.7305 0.039062-2.5 0.10938-0.77344 0.0625-1.4023 0.14062-1.8906 0.23438v18.219c0.625 0.40625 1.4414 0.74609 2.4531 1.0156 1.0195 0.27344 2.0508 0.40625 3.0938 0.40625 4.7891 0 7.1875-3.2266 7.1875-9.6875zm10.297-0.26562c0 2.75-0.33984 5.2578-1.0156 7.5156-0.67969 2.2617-1.6719 4.2031-2.9844 5.8281s-2.9453 2.8906-4.8906 3.7969c-1.9375 0.89453-4.168 1.3438-6.6875 1.3438-1.4062 0-2.7188-0.13672-3.9375-0.40625-1.2188-0.26953-2.3906-0.64844-3.5156-1.1406v13.406h-10.094v-46.953c0.89453-0.26953 1.9297-0.52344 3.1094-0.76562 1.1758-0.25 2.4062-0.46094 3.6875-0.64062 1.2891-0.1875 2.6016-0.33594 3.9375-0.45312 1.332-0.11328 2.6094-0.17188 3.8281-0.17188 2.9375 0 5.5547 0.44531 7.8594 1.3281 2.3008 0.875 4.2383 2.1172 5.8125 3.7188 1.582 1.6055 2.7891 3.5586 3.625 5.8594 0.84375 2.3047 1.2656 4.8828 1.2656 7.7344z"/>
</symbol>
<symbol id="az" overflow="visible">
<path d="m3.0469-17.547c0-3.1641 0.48438-5.9297 1.4531-8.2969 0.97656-2.375 2.2539-4.3477 3.8281-5.9219 1.582-1.582 3.3984-2.7812 5.4531-3.5938 2.0625-0.8125 4.1758-1.2188 6.3438-1.2188 5.0508 0 9.0469 1.5469 11.984 4.6406s4.4062 7.6406 4.4062 13.641c0 0.59375-0.027344 1.2422-0.078125 1.9375-0.042969 0.69922-0.085938 1.3203-0.125 1.8594h-22.891c0.21875 2.0859 1.1875 3.7344 2.9062 4.9531s4.0195 1.8281 6.9062 1.8281c1.8516 0 3.6719-0.16406 5.4531-0.5 1.7891-0.34375 3.25-0.76562 4.375-1.2656l1.3594 8.2031c-0.54297 0.27344-1.2656 0.54297-2.1719 0.8125-0.90625 0.27344-1.9141 0.50391-3.0156 0.70312-1.1055 0.20703-2.293 0.37891-3.5625 0.51562-1.2617 0.13281-2.5234 0.20312-3.7812 0.20312-3.2109 0-6-0.47656-8.375-1.4219s-4.3438-2.2422-5.9062-3.8906c-1.5547-1.6562-2.7031-3.6133-3.4531-5.875-0.74219-2.2578-1.1094-4.6953-1.1094-7.3125zm23.719-3.8594c-0.054687-0.86328-0.20312-1.7031-0.45312-2.5156-0.24219-0.8125-0.62109-1.5312-1.1406-2.1562-0.52344-0.63281-1.1797-1.1562-1.9688-1.5625-0.79297-0.40625-1.7773-0.60938-2.9531-0.60938-1.125 0-2.0938 0.19531-2.9062 0.57812-0.8125 0.38672-1.4922 0.89844-2.0312 1.5312-0.54297 0.625-0.96094 1.3555-1.25 2.1875-0.29297 0.83594-0.50781 1.6836-0.64062 2.5469z"/>
</symbol>
<symbol id="ay" overflow="visible">
<path d="m4.75-34.422c1.707-0.48828 3.9141-0.94531 6.625-1.375 2.7188-0.4375 5.5664-0.65625 8.5469-0.65625 3.0195 0 5.5352 0.39844 7.5469 1.1875 2.0078 0.79297 3.6016 1.9141 4.7812 3.3594 1.1758 1.4375 2.0078 3.1523 2.5 5.1406 0.5 1.9922 0.75 4.2031 0.75 6.6406v20.125h-10.094v-18.906c0-3.25-0.43359-5.5508-1.2969-6.9062-0.85547-1.3516-2.4531-2.0312-4.7969-2.0312-0.73047 0-1.5 0.039062-2.3125 0.10938-0.8125 0.0625-1.5312 0.14062-2.1562 0.23438v27.5h-10.094z"/>
</symbol>
<symbol id="ax" overflow="visible">
<path d="m31.094-15.781c0 2.3047-0.26172 4.4688-0.78125 6.5-0.52344 2.0312-1.4297 3.8086-2.7188 5.3281-1.2812 1.5117-3.0156 2.7109-5.2031 3.5938-2.1875 0.875-4.9531 1.3125-8.2969 1.3125-3.0742 0-5.7188-0.37109-7.9375-1.1094-2.2109-0.75-4.0391-1.625-5.4844-2.625l3.5312-8.1875c1.3125 0.76172 2.7109 1.4375 4.2031 2.0312 1.4883 0.58594 3.1133 0.875 4.875 0.875 2.5703 0 4.4219-0.62891 5.5469-1.8906 1.1328-1.2695 1.7031-3.3945 1.7031-6.375v-30.625h10.562z"/>
</symbol>
<symbol id="aw" overflow="visible">
<path d="m15.984-8.6094c0.5 0.054687 1.0781 0.089844 1.7344 0.10938 0.65625 0.023438 1.4297 0.03125 2.3281 0.03125 5.2891 0 9.2109-1.332 11.766-4 2.5508-2.6641 3.8281-6.3477 3.8281-11.047 0-4.9141-1.2266-8.6406-3.6719-11.172-2.4375-2.5312-6.2969-3.7969-11.578-3.7969-0.71875 0-1.4648 0.011719-2.2344 0.03125-0.77344 0.023437-1.4961 0.078125-2.1719 0.17188zm30.562-14.906c0 4.0742-0.63672 7.625-1.9062 10.656-1.2617 3.0234-3.0586 5.5273-5.3906 7.5156-2.3242 1.9805-5.1562 3.4688-8.5 4.4688-3.3359 0.98828-7.0781 1.4844-11.234 1.4844-1.8984 0-4.1094-0.078125-6.6406-0.23438s-5.0156-0.48438-7.4531-0.98438v-45.734c2.4375-0.44531 4.9727-0.75 7.6094-0.90625 2.6445-0.16406 4.9141-0.25 6.8125-0.25 4.0195 0 7.6641 0.45312 10.938 1.3594 3.2812 0.90625 6.0938 2.3359 8.4375 4.2812 2.3516 1.9375 4.1602 4.4219 5.4219 7.4531 1.2695 3.0234 1.9062 6.6523 1.9062 10.891z"/>
</symbol>
<symbol id="av" overflow="visible">
<path d="m33.125 0c-0.94922-1.5312-2.0703-3.1875-3.3594-4.9688-1.2812-1.7891-2.6797-3.5781-4.1875-5.3594-1.5117-1.7891-3.0859-3.5078-4.7188-5.1562-1.625-1.6445-3.25-3.0977-4.875-4.3594v19.844h-10.562v-46.953h10.562v17.75c2.7578-2.8828 5.5234-5.8945 8.2969-9.0312 2.7812-3.1445 5.3672-6.0508 7.7656-8.7188h12.531c-3.2109 3.793-6.4297 7.4531-9.6562 10.984-3.2305 3.5234-6.625 7.0625-10.188 10.625 3.75 3.125 7.375 6.8359 10.875 11.125 3.5 4.2812 6.8477 9.0234 10.047 14.219z"/>
</symbol>
<symbol id="au" overflow="visible">
<path d="m14.297-7.5c0 1.125-0.12109 2.1719-0.35938 3.1406-0.24219 0.96094-0.66406 1.8047-1.2656 2.5312-0.60547 0.71875-1.418 1.2891-2.4375 1.7031-1.0117 0.41406-2.2969 0.625-3.8594 0.625-1.4492 0-2.7031-0.20312-3.7656-0.60938s-1.875-0.83594-2.4375-1.2969l1.4688-3.2656c0.55078 0.375 1.2227 0.73438 2.0156 1.0781 0.80078 0.33594 1.6172 0.5 2.4531 0.5 1.4062 0 2.4258-0.34766 3.0625-1.0469 0.63281-0.69531 0.95312-1.9062 0.95312-3.625v-15.016h4.1719z"/>
</symbol>
<symbol id="r" overflow="visible">
<path d="m8.5781-2.7969c1.2266 0 2.1602-0.0625 2.7969-0.1875v-4.4062c-0.21875-0.070313-0.53906-0.14062-0.95312-0.20312-0.41797-0.0625-0.875-0.09375-1.375-0.09375-0.4375 0-0.88672 0.03125-1.3438 0.09375-0.44922 0.0625-0.85547 0.18359-1.2188 0.35938-0.35547 0.17969-0.64062 0.42969-0.85938 0.75-0.21875 0.3125-0.32812 0.71094-0.32812 1.1875 0 0.94922 0.28906 1.6055 0.875 1.9688 0.59375 0.35547 1.3945 0.53125 2.4062 0.53125zm-0.32812-14.828c1.3125 0 2.4141 0.16797 3.3125 0.5 0.90625 0.32422 1.625 0.78125 2.1562 1.375 0.53906 0.59375 0.92578 1.3125 1.1562 2.1562 0.22656 0.84375 0.34375 1.7734 0.34375 2.7812v10.422c-0.61719 0.125-1.543 0.28125-2.7812 0.46875-1.2422 0.1875-2.6367 0.28125-4.1875 0.28125-1.0312 0-1.9766-0.10156-2.8281-0.29688-0.85547-0.19531-1.5859-0.51562-2.1875-0.95312-0.60547-0.4375-1.0781-1.0039-1.4219-1.7031-0.33594-0.70703-0.5-1.5703-0.5-2.5938 0-0.98828 0.19141-1.8203 0.57812-2.5 0.38281-0.6875 0.90625-1.2422 1.5625-1.6719 0.65625-0.42578 1.4141-0.72656 2.2812-0.90625 0.86328-0.1875 1.7695-0.28125 2.7188-0.28125 0.4375 0 0.89453 0.027344 1.375 0.078125 0.47656 0.054688 0.99219 0.14844 1.5469 0.28125v-0.65625c0-0.46875-0.058594-0.90625-0.17188-1.3125-0.10547-0.41406-0.29688-0.78125-0.57812-1.0938-0.27344-0.32031-0.63281-0.57031-1.0781-0.75-0.44922-0.17578-1.0117-0.26562-1.6875-0.26562-0.92969 0-1.7773 0.070313-2.5469 0.20312-0.76172 0.125-1.3828 0.27734-1.8594 0.45312l-0.5-3.2188c0.50781-0.17578 1.2422-0.35156 2.2031-0.53125 0.96875-0.17578 2-0.26562 3.0938-0.26562z"/>
</symbol>
<symbol id="q" overflow="visible">
<path d="m6.9375 0c-1.0938-2.2578-2.2188-4.8477-3.375-7.7656-1.1484-2.9258-2.1953-6.0664-3.1406-9.4219h4.25c0.23828 0.96094 0.51562 1.9961 0.82812 3.1094 0.32031 1.1055 0.66016 2.2109 1.0156 3.3125 0.36328 1.1055 0.73828 2.1797 1.125 3.2188 0.38281 1.043 0.74219 1.9805 1.0781 2.8125 0.32031-0.83203 0.67188-1.7695 1.0469-2.8125 0.375-1.0391 0.73828-2.1133 1.0938-3.2188 0.36328-1.1016 0.70703-2.207 1.0312-3.3125 0.33203-1.1133 0.61719-2.1484 0.85938-3.1094h4.1094c-0.9375 3.3555-1.9844 6.4961-3.1406 9.4219-1.1484 2.918-2.2656 5.5078-3.3594 7.7656z"/>
</symbol>
<symbol id="aq" overflow="visible">
<path d="m6.875-3.4219c0.23828 0.023437 0.55469 0.039063 0.95312 0.046875 0.39453 0.011719 0.92969 0.015625 1.6094 0.015625 2.7812 0 4.8516-0.70312 6.2188-2.1094 1.375-1.4141 2.0625-3.3945 2.0625-5.9375 0-2.582-0.67188-4.5625-2.0156-5.9375-1.3359-1.3828-3.4023-2.0781-6.2031-2.0781-1.2305 0-2.1055 0.03125-2.625 0.09375zm15.188-7.9844c0 1.9688-0.30859 3.6836-0.92188 5.1406-0.61719 1.4609-1.4922 2.6797-2.625 3.6562-1.125 0.96875-2.4844 1.6953-4.0781 2.1719-1.5859 0.46875-3.3398 0.70312-5.2656 0.70312-0.91797 0-1.9609-0.042969-3.125-0.125-1.1562-0.074219-2.2617-0.22656-3.3125-0.46875v-22.125c1.0508-0.23828 2.1641-0.39062 3.3438-0.45312 1.1875-0.070312 2.2383-0.10938 3.1562-0.10938 1.9062 0 3.6445 0.22656 5.2188 0.67188 1.582 0.44922 2.9375 1.1523 4.0625 2.1094 1.1328 0.96094 2.0078 2.168 2.625 3.625 0.61328 1.4492 0.92188 3.1836 0.92188 5.2031z"/>
</symbol>
<symbol id="k" overflow="visible">
<path d="m1.5781-8.5156c0-1.5078 0.22266-2.832 0.67188-3.9688 0.44531-1.1445 1.0391-2.0938 1.7812-2.8438 0.75-0.75781 1.6016-1.332 2.5625-1.7188 0.96875-0.38281 1.957-0.57812 2.9688-0.57812 2.3633 0 4.207 0.73438 5.5312 2.2031 1.332 1.4688 2 3.6641 2 6.5781 0 0.21875-0.007812 0.46875-0.015625 0.75-0.011719 0.27344-0.027344 0.51562-0.046875 0.73438h-11.344c0.11328 1.375 0.60156 2.4453 1.4688 3.2031 0.86328 0.75 2.1172 1.125 3.7656 1.125 0.95703 0 1.8359-0.082031 2.6406-0.25 0.80078-0.17578 1.4297-0.36328 1.8906-0.5625l0.53125 3.25c-0.21875 0.11719-0.52344 0.23438-0.90625 0.35938-0.38672 0.11719-0.82812 0.21875-1.3281 0.3125-0.49219 0.10156-1.0234 0.1875-1.5938 0.25-0.5625 0.0625-1.1406 0.09375-1.7344 0.09375-1.5117 0-2.8281-0.22656-3.9531-0.67188-1.1172-0.44531-2.0391-1.0703-2.7656-1.875-0.71875-0.80078-1.2578-1.7422-1.6094-2.8281-0.34375-1.082-0.51562-2.2695-0.51562-3.5625zm11.531-1.7812c0-0.53906-0.078125-1.0547-0.23438-1.5469-0.14844-0.5-0.37109-0.92578-0.67188-1.2812-0.29297-0.36328-0.65234-0.64844-1.0781-0.85938-0.42969-0.20703-0.9375-0.3125-1.5312-0.3125-0.61719 0-1.1523 0.11719-1.6094 0.34375-0.46094 0.23047-0.85156 0.53125-1.1719 0.90625-0.3125 0.36719-0.55859 0.79297-0.73438 1.2812-0.17969 0.48047-0.29688 0.96875-0.35938 1.4688z"/>
</symbol>
<symbol id="ap" overflow="visible">
<path d="m8.5156 0.32812c-1.1875-0.023437-2.1719-0.15234-2.9531-0.39062-0.77344-0.23828-1.3867-0.58203-1.8438-1.0312-0.46094-0.45703-0.78125-1.0195-0.96875-1.6875-0.1875-0.66406-0.28125-1.4258-0.28125-2.2812v-19.797l3.9688-0.65625v19.703c0 0.48047 0.035156 0.88672 0.10938 1.2188 0.082031 0.32422 0.22266 0.60156 0.42188 0.82812 0.19531 0.23047 0.46094 0.40625 0.79688 0.53125 0.34375 0.11719 0.78125 0.21094 1.3125 0.28125z"/>
</symbol>
<symbol id="ao" overflow="visible">
<path d="m18.078-8.6094c0 1.3555-0.19922 2.5938-0.59375 3.7188-0.39844 1.1172-0.95312 2.0703-1.6719 2.8594-0.71875 0.78125-1.5898 1.3906-2.6094 1.8281-1.0234 0.4375-2.1484 0.65625-3.375 0.65625-1.2305 0-2.3516-0.21875-3.3594-0.65625-1-0.4375-1.8672-1.0469-2.5938-1.8281-0.71875-0.78906-1.2812-1.7422-1.6875-2.8594-0.40625-1.125-0.60938-2.3633-0.60938-3.7188 0-1.3633 0.20312-2.5977 0.60938-3.7031 0.40625-1.1016 0.97266-2.0508 1.7031-2.8438 0.73828-0.78906 1.6094-1.3984 2.6094-1.8281 1.0078-0.42578 2.1172-0.64062 3.3281-0.64062 1.207 0 2.3164 0.21484 3.3281 0.64062 1.0195 0.42969 1.8906 1.0391 2.6094 1.8281 0.72656 0.79297 1.2969 1.7422 1.7031 2.8438 0.40625 1.1055 0.60938 2.3398 0.60938 3.7031zm-4.0781 0c0-1.707-0.37109-3.0625-1.1094-4.0625-0.73047-1-1.75-1.5-3.0625-1.5s-2.3398 0.5-3.0781 1.5c-0.73047 1-1.0938 2.3555-1.0938 4.0625 0 1.7305 0.36328 3.1016 1.0938 4.1094 0.73828 1.0117 1.7656 1.5156 3.0781 1.5156s2.332-0.50391 3.0625-1.5156c0.73828-1.0078 1.1094-2.3789 1.1094-4.1094z"/>
</symbol>
<symbol id="an" overflow="visible">
<path d="m13.938-8.5156c0-1.7695-0.40234-3.1484-1.2031-4.1406-0.79297-0.98828-2.0781-1.4844-3.8594-1.4844-0.375 0-0.76562 0.023437-1.1719 0.0625-0.40625 0.03125-0.80469 0.10156-1.1875 0.20312v9.8281c0.34375 0.24219 0.80469 0.46484 1.3906 0.67188 0.58203 0.21094 1.2031 0.3125 1.8594 0.3125 1.4453 0 2.5039-0.48828 3.1719-1.4688 0.66406-0.98828 1-2.3164 1-3.9844zm4.0781-0.0625c0 1.3125-0.17188 2.5156-0.51562 3.6094-0.33594 1.0938-0.82031 2.0391-1.4531 2.8281-0.63672 0.79297-1.4336 1.4062-2.3906 1.8438-0.94922 0.4375-2.0273 0.65625-3.2344 0.65625-0.8125 0-1.5586-0.10156-2.2344-0.29688-0.67969-0.19531-1.2344-0.41406-1.6719-0.65625v6.6719h-3.9844v-22.719c0.8125-0.21875 1.8047-0.42578 2.9844-0.625 1.1875-0.19531 2.4375-0.29688 3.75-0.29688 1.3633 0 2.582 0.21094 3.6562 0.625 1.0703 0.41797 1.9844 1.0156 2.7344 1.7969 0.75781 0.78125 1.3438 1.7266 1.75 2.8281 0.40625 1.1055 0.60938 2.3516 0.60938 3.7344z"/>
</symbol>
<symbol id="am" overflow="visible">
<path d="m12.328-9.0469c0-1.7891-0.22656-3.0859-0.67188-3.8906-0.44922-0.80078-1.2891-1.2031-2.5156-1.2031-0.4375 0-0.92188 0.039063-1.4531 0.10938-0.52344 0.0625-0.91406 0.11719-1.1719 0.15625v13.875h-3.9844v-16.641c0.76953-0.21875 1.7695-0.42578 3-0.625 1.2383-0.19531 2.5508-0.29688 3.9375-0.29688 1.1875 0 2.1562 0.15625 2.9062 0.46875 0.75781 0.30469 1.3906 0.71094 1.8906 1.2188 0.23828-0.17578 0.54688-0.36328 0.92188-0.5625 0.375-0.19531 0.78906-0.375 1.25-0.53125 0.45703-0.16406 0.94141-0.30469 1.4531-0.42188 0.51953-0.11328 1.0469-0.17188 1.5781-0.17188 1.332 0 2.4297 0.19531 3.2969 0.57812 0.86328 0.38672 1.5391 0.92969 2.0312 1.625 0.5 0.6875 0.84375 1.5234 1.0312 2.5 0.1875 0.96875 0.28125 2.0312 0.28125 3.1875v9.6719h-3.9844v-9.0469c0-1.7891-0.21875-3.0859-0.65625-3.8906-0.4375-0.80078-1.2812-1.2031-2.5312-1.2031-0.63672 0-1.2422 0.10547-1.8125 0.3125-0.57422 0.21094-1 0.41406-1.2812 0.60938 0.17578 0.55469 0.29688 1.1367 0.35938 1.75 0.070313 0.61719 0.10938 1.2734 0.10938 1.9688v9.5h-3.9844z"/>
</symbol>
<symbol id="at" overflow="visible">
<path d="m2.5312-16.641c0.76953-0.21875 1.7656-0.42578 2.9844-0.625 1.2266-0.19531 2.5859-0.29688 4.0781-0.29688 1.4062 0 2.5781 0.19531 3.5156 0.57812 0.94531 0.38672 1.6953 0.92969 2.25 1.625 0.5625 0.6875 0.95703 1.5234 1.1875 2.5 0.22656 0.96875 0.34375 2.0312 0.34375 3.1875v9.6719h-3.9688v-9.0469c0-0.91406-0.0625-1.6953-0.1875-2.3438-0.11719-0.64453-0.3125-1.1719-0.59375-1.5781-0.27344-0.40625-0.64062-0.70312-1.1094-0.89062s-1.0469-0.28125-1.7344-0.28125c-0.5 0-1.0273 0.039063-1.5781 0.10938-0.54297 0.0625-0.94531 0.11719-1.2031 0.15625v13.875h-3.9844z"/>
</symbol>
<symbol id="s" overflow="visible">
<path d="m2.3281-21.734 3.9844-0.65625v5.2031h6.1094v3.3125h-6.1094v7c0 1.3867 0.21875 2.375 0.65625 2.9688 0.4375 0.58594 1.1797 0.875 2.2344 0.875 0.72656 0 1.3672-0.070312 1.9219-0.21875 0.5625-0.15625 1.0039-0.30078 1.3281-0.4375l0.65625 3.1562c-0.46094 0.19922-1.0625 0.40234-1.8125 0.60938-0.74219 0.20703-1.6172 0.3125-2.625 0.3125-1.2188 0-2.2422-0.16406-3.0625-0.48438-0.82422-0.33203-1.4805-0.8125-1.9688-1.4375-0.48047-0.625-0.82031-1.3789-1.0156-2.2656-0.19922-0.88281-0.29688-1.8984-0.29688-3.0469z"/>
</symbol>
<symbol id="as" overflow="visible">
<path d="m16.344 0c-0.57422-0.875-1.2344-1.7891-1.9844-2.75-0.74219-0.96875-1.5234-1.8984-2.3438-2.7969-0.82422-0.90625-1.6719-1.7656-2.5469-2.5781s-1.7422-1.5078-2.5938-2.0938v10.219h-4.1406v-22.781h4.1406v9.4062c0.71875-0.72656 1.4727-1.5039 2.2656-2.3281 0.78906-0.82031 1.5703-1.6562 2.3438-2.5 0.78125-0.84375 1.5195-1.6562 2.2188-2.4375 0.70703-0.78906 1.3438-1.5039 1.9062-2.1406h4.9688c-0.71875 0.83594-1.4844 1.6992-2.2969 2.5938-0.8125 0.89844-1.6484 1.8047-2.5 2.7188-0.85547 0.90625-1.7148 1.8125-2.5781 2.7188-0.86719 0.89844-1.7148 1.7461-2.5469 2.5469 0.91406 0.71094 1.8477 1.5312 2.7969 2.4688 0.95703 0.92969 1.8945 1.9219 2.8125 2.9844 0.92578 1.0625 1.8125 2.1719 2.6562 3.3281 0.84375 1.1484 1.6133 2.2891 2.3125 3.4219z"/>
</symbol>
<symbol id="ar" overflow="visible">
<path d="m6.5469 0h-3.9844v-17.188h3.9844zm0.42188-22.219c0 0.74219-0.24609 1.3281-0.73438 1.7656-0.48047 0.4375-1.0469 0.65625-1.7031 0.65625-0.67969 0-1.2578-0.21875-1.7344-0.65625-0.48047-0.4375-0.71875-1.0234-0.71875-1.7656 0-0.76953 0.23828-1.375 0.71875-1.8125 0.47656-0.4375 1.0547-0.65625 1.7344-0.65625 0.65625 0 1.2227 0.21875 1.7031 0.65625 0.48828 0.4375 0.73438 1.043 0.73438 1.8125z"/>
</symbol>
<symbol id="al" overflow="visible">
<path d="m7.4062 0.28125c-0.99219 0-1.875-0.15234-2.6562-0.45312s-1.4453-0.74219-1.9844-1.3281c-0.54297-0.59375-0.96094-1.3125-1.25-2.1562-0.29297-0.84375-0.4375-1.8125-0.4375-2.9062 0-1.1016 0.16406-2.0781 0.5-2.9219 0.33203-0.84375 0.78906-1.5547 1.375-2.1406 0.58203-0.58203 1.2656-1.0234 2.0469-1.3281 0.78125-0.3125 1.6172-0.46875 2.5156-0.46875 0.53906 0 1.0312 0.042969 1.4688 0.125 0.44531 0.085937 0.83203 0.17969 1.1562 0.28125 0.33203 0.10547 0.60156 0.21484 0.8125 0.32812 0.21875 0.10547 0.36719 0.18359 0.45312 0.23438l-0.70312 1.9531c-0.30469-0.1875-0.73438-0.36328-1.2969-0.53125-0.55469-0.17578-1.1562-0.26562-1.8125-0.26562-0.57422 0-1.1055 0.10156-1.5938 0.29688-0.49219 0.19922-0.91797 0.49609-1.2812 0.89062-0.35547 0.38672-0.63672 0.875-0.84375 1.4688-0.19922 0.58594-0.29688 1.2734-0.29688 2.0625 0 0.6875 0.078125 1.3242 0.23438 1.9062 0.15625 0.58594 0.39453 1.0898 0.71875 1.5156 0.33203 0.41797 0.75 0.74609 1.25 0.98438 0.50781 0.23047 1.1172 0.34375 1.8281 0.34375 0.84375 0 1.5312-0.082031 2.0625-0.25 0.53125-0.17578 0.94141-0.34375 1.2344-0.5l0.64062 1.9531c-0.15625 0.10547-0.36719 0.21094-0.625 0.3125-0.25 0.09375-0.55469 0.1875-0.90625 0.28125-0.35547 0.09375-0.75781 0.16406-1.2031 0.21875-0.4375 0.0625-0.90625 0.09375-1.4062 0.09375z"/>
</symbol>
<symbol id="p" overflow="visible">
<path d="m9.5781-0.29688c-0.44922 0.11719-1.0273 0.23047-1.7344 0.34375-0.69922 0.125-1.4688 0.1875-2.3125 0.1875-0.80469 0-1.4766-0.11719-2.0156-0.34375-0.53125-0.22656-0.96094-0.54688-1.2812-0.95312-0.3125-0.40625-0.54297-0.88281-0.6875-1.4375-0.13672-0.5625-0.20312-1.1797-0.20312-1.8594v-5.5312h2.2969v5.1719c0 1.0625 0.14844 1.8242 0.45312 2.2812 0.3125 0.44922 0.85156 0.67188 1.625 0.67188 0.26953 0 0.5625-0.007813 0.875-0.03125 0.3125-0.019531 0.53906-0.050781 0.6875-0.09375v-8h2.2969z"/>
</symbol>
<symbol id="b" overflow="visible">
<path d="m7.0938-7.8281c-0.1875-0.0625-0.44922-0.12891-0.78125-0.20312-0.33594-0.070312-0.72656-0.10938-1.1719-0.10938-0.25 0-0.51562 0.027344-0.79688 0.078125-0.28125 0.054688-0.48047 0.10156-0.59375 0.14062v7.9219h-2.2969v-9.4219c0.44531-0.16406 1-0.32031 1.6562-0.46875 0.66406-0.14453 1.3984-0.21875 2.2031-0.21875 0.15625 0 0.33203 0.011719 0.53125 0.03125 0.20703 0.023437 0.41016 0.046875 0.60938 0.078125 0.19531 0.03125 0.39062 0.070312 0.57812 0.10938 0.19531 0.042969 0.35156 0.085937 0.46875 0.125z"/>
</symbol>
<symbol id="a" overflow="visible">
<path d="m0.90625-4.9062c0-0.86328 0.12891-1.625 0.39062-2.2812 0.25781-0.65625 0.60156-1.2031 1.0312-1.6406 0.42578-0.4375 0.91406-0.76562 1.4688-0.98438 0.5625-0.21875 1.1289-0.32812 1.7031-0.32812 1.3633 0 2.4258 0.42188 3.1875 1.2656 0.76953 0.84375 1.1562 2.1055 1.1562 3.7812 0 0.125-0.007812 0.27344-0.015625 0.4375 0 0.15625-0.011719 0.29688-0.03125 0.42188h-6.5156c0.0625 0.79297 0.33594 1.4062 0.82812 1.8438 0.5 0.4375 1.2227 0.65625 2.1719 0.65625 0.55078 0 1.0547-0.050781 1.5156-0.15625 0.46875-0.10156 0.83203-0.21094 1.0938-0.32812l0.3125 1.875c-0.13672 0.0625-0.3125 0.13281-0.53125 0.20312-0.21875 0.074219-0.46875 0.13672-0.75 0.1875-0.28125 0.050781-0.58984 0.097656-0.92188 0.14062-0.32422 0.039062-0.65625 0.0625-1 0.0625-0.875 0-1.6367-0.13281-2.2812-0.39062-0.63672-0.25781-1.1641-0.61719-1.5781-1.0781-0.41797-0.45703-0.73047-1-0.9375-1.625-0.19922-0.625-0.29688-1.3125-0.29688-2.0625zm6.6406-1.0156c0-0.3125-0.046875-0.60938-0.14062-0.89062-0.085938-0.28906-0.21094-0.53906-0.375-0.75-0.16797-0.20703-0.375-0.36719-0.625-0.48438-0.25-0.125-0.54297-0.1875-0.875-0.1875-0.35547 0-0.66797 0.070313-0.9375 0.20312-0.26172 0.13672-0.48438 0.3125-0.67188 0.53125-0.17969 0.21094-0.32031 0.45312-0.42188 0.73438-0.10547 0.27344-0.17188 0.55469-0.20312 0.84375z"/>
</symbol>
<symbol id="x" overflow="visible">
<path d="m1.4531-9.5781c0.44531-0.125 1.0195-0.24219 1.7188-0.35938 0.70703-0.11328 1.4922-0.17188 2.3594-0.17188 0.80078 0 1.4727 0.11719 2.0156 0.34375 0.53906 0.21875 0.97266 0.52734 1.2969 0.92188 0.32031 0.39844 0.54688 0.875 0.67188 1.4375 0.13281 0.5625 0.20312 1.1797 0.20312 1.8438v5.5625h-2.2812v-5.2031c0-0.53125-0.039062-0.97656-0.10938-1.3438-0.0625-0.375-0.17969-0.67578-0.34375-0.90625-0.15625-0.23828-0.37109-0.41016-0.64062-0.51562-0.27344-0.11328-0.60156-0.17188-0.98438-0.17188-0.29297 0-0.60156 0.023437-0.92188 0.0625-0.3125 0.042969-0.54297 0.074219-0.6875 0.09375v7.9844h-2.2969z"/>
</symbol>
<symbol id="w" overflow="visible">
<path d="m1.3438-12.5 2.2969-0.39062v3h3.5156v1.9062h-3.5156v4.0312c0 0.79297 0.125 1.3594 0.375 1.7031s0.67578 0.51562 1.2812 0.51562c0.41406 0 0.78516-0.039063 1.1094-0.125 0.32031-0.09375 0.57812-0.17969 0.76562-0.26562l0.375 1.8281c-0.26172 0.11719-0.60938 0.23047-1.0469 0.34375-0.42969 0.125-0.92969 0.1875-1.5 0.1875-0.71094 0-1.3047-0.09375-1.7812-0.28125-0.46875-0.19531-0.84375-0.47266-1.125-0.82812-0.27344-0.36328-0.46484-0.80078-0.57812-1.3125-0.11719-0.50781-0.17188-1.0938-0.17188-1.75z"/>
</symbol>
<symbol id="v" overflow="visible">
<path d="m8.2344-4.3125c0 0.64844-0.074219 1.2461-0.21875 1.7969-0.13672 0.55469-0.375 1.0391-0.71875 1.4531-0.34375 0.41797-0.8125 0.74609-1.4062 0.98438-0.58594 0.23828-1.3242 0.35938-2.2188 0.35938-0.83594 0-1.5586-0.11719-2.1719-0.34375-0.60547-0.23828-1.0742-0.48828-1.4062-0.75l0.85938-1.875c0.3125 0.21875 0.69531 0.42969 1.1562 0.625 0.45703 0.1875 0.92578 0.28125 1.4062 0.28125 0.8125 0 1.3984-0.19531 1.7656-0.59375 0.36328-0.40625 0.54688-1.1016 0.54688-2.0938v-8.6406h2.4062z"/>
</symbol>
<symbol id="u" overflow="visible">
<path d="m3.9531-1.9688c0.13281 0.011719 0.31641 0.023438 0.54688 0.03125h0.9375c1.5938 0 2.7852-0.40625 3.5781-1.2188 0.78906-0.8125 1.1875-1.9453 1.1875-3.4062 0-1.4883-0.38672-2.6289-1.1562-3.4219-0.77344-0.80078-1.9648-1.2031-3.5781-1.2031-0.71094 0-1.2148 0.023438-1.5156 0.0625zm8.75-4.5938c0 1.1367-0.17969 2.125-0.53125 2.9688-0.35547 0.83594-0.85938 1.5312-1.5156 2.0938-0.64844 0.5625-1.4297 0.98047-2.3438 1.25-0.91797 0.26953-1.9297 0.40625-3.0312 0.40625-0.53125 0-1.1328-0.027344-1.7969-0.078125-0.66797-0.042969-1.3047-0.12891-1.9062-0.26562v-12.734c0.60156-0.13281 1.2422-0.22266 1.9219-0.26562 0.67578-0.039062 1.2812-0.0625 1.8125-0.0625 1.1016 0 2.1094 0.13281 3.0156 0.39062 0.90625 0.26172 1.6797 0.66797 2.3281 1.2188 0.65625 0.54297 1.1602 1.2344 1.5156 2.0781 0.35156 0.83594 0.53125 1.8359 0.53125 3z"/>
</symbol>
<symbol id="t" overflow="visible">
<path d="m9.4062 0c-0.33594-0.5-0.71484-1.0234-1.1406-1.5781-0.42969-0.5625-0.88281-1.0977-1.3594-1.6094-0.46875-0.51953-0.96094-1.0156-1.4688-1.4844-0.5-0.46875-0.99609-0.875-1.4844-1.2188v5.8906h-2.375v-13.109h2.375v5.4062c0.41406-0.41406 0.84766-0.85938 1.2969-1.3281 0.45703-0.47656 0.91016-0.95703 1.3594-1.4375 0.44531-0.48828 0.875-0.95703 1.2812-1.4062 0.40625-0.45703 0.76953-0.86719 1.0938-1.2344h2.8594c-0.41797 0.48047-0.85938 0.98047-1.3281 1.5-0.46094 0.51172-0.9375 1.0312-1.4375 1.5625-0.49219 0.52344-0.98438 1.043-1.4844 1.5625-0.5 0.51172-0.99219 1-1.4688 1.4688 0.53125 0.39844 1.0703 0.86719 1.625 1.4062 0.55078 0.53125 1.0859 1.1055 1.6094 1.7188 0.53125 0.61719 1.0391 1.2578 1.5312 1.9219 0.48828 0.65625 0.92969 1.3125 1.3281 1.9688z"/>
</symbol>
<symbol id="ak" overflow="visible">
<path d="m5.1875-13.25c1.8828 0 3.3281 0.35156 4.3281 1.0469 1.0078 0.69922 1.5156 1.7578 1.5156 3.1719 0 1.7812-0.875 2.9922-2.625 3.625 0.23828 0.29297 0.50781 0.64844 0.8125 1.0625 0.30078 0.40625 0.60938 0.85547 0.92188 1.3438 0.3125 0.49219 0.61328 0.99219 0.90625 1.5 0.28906 0.51172 0.55078 1.0117 0.78125 1.5h-2.6719c-0.24219-0.45703-0.5-0.91406-0.78125-1.375-0.27344-0.45703-0.55469-0.90625-0.84375-1.3438-0.28125-0.4375-0.5625-0.84375-0.84375-1.2188-0.27344-0.38281-0.52734-0.72656-0.76562-1.0312-0.17969 0.011719-0.32812 0.015625-0.45312 0.015625h-0.35938-1.1562v4.9531h-2.375v-12.922c0.57031-0.125 1.1875-0.20703 1.8438-0.25 0.65625-0.050781 1.2422-0.078125 1.7656-0.078125zm0.17188 2.0625c-0.51172 0-0.98047 0.023438-1.4062 0.0625v4.2344h1.0469c0.57031 0 1.0781-0.03125 1.5156-0.09375 0.44531-0.0625 0.81641-0.17188 1.1094-0.32812 0.30078-0.16406 0.52344-0.39062 0.67188-0.67188 0.15625-0.28125 0.23438-0.63281 0.23438-1.0625 0-0.40625-0.078125-0.74219-0.23438-1.0156-0.14844-0.28125-0.35938-0.5-0.64062-0.65625-0.28125-0.16406-0.62109-0.28516-1.0156-0.35938-0.38672-0.070313-0.8125-0.10938-1.2812-0.10938z"/>
</symbol>
<symbol id="g" overflow="visible">
<path d="m4.9062 0.1875c-0.6875-0.011719-1.2578-0.085938-1.7031-0.21875-0.44922-0.14453-0.80859-0.34375-1.0781-0.59375-0.26172-0.25781-0.44531-0.58203-0.54688-0.96875-0.10547-0.38281-0.15625-0.82031-0.15625-1.3125v-11.406l2.2812-0.375v11.344c0 0.27344 0.019531 0.50781 0.0625 0.70312 0.050781 0.1875 0.13281 0.35156 0.25 0.48438 0.11328 0.125 0.26562 0.22656 0.45312 0.29688 0.19531 0.0625 0.44531 0.11719 0.75 0.15625z"/>
</symbol>
<symbol id="e" overflow="visible">
<path d="m4.9375-1.6094c0.70703 0 1.2422-0.035156 1.6094-0.10938v-2.5312c-0.125-0.039062-0.30859-0.078125-0.54688-0.10938-0.24219-0.039063-0.50781-0.0625-0.79688-0.0625-0.25 0-0.50781 0.023437-0.76562 0.0625-0.26172 0.03125-0.49609 0.10156-0.70312 0.20312-0.21094 0.09375-0.375 0.23438-0.5 0.42188-0.125 0.17969-0.1875 0.40625-0.1875 0.6875 0 0.54297 0.16406 0.91797 0.5 1.125 0.34375 0.21094 0.80469 0.3125 1.3906 0.3125zm-0.1875-8.5312c0.75781 0 1.3945 0.09375 1.9062 0.28125 0.51953 0.1875 0.92969 0.45312 1.2344 0.79688 0.3125 0.34375 0.53516 0.76172 0.67188 1.25 0.13281 0.48047 0.20312 1.0117 0.20312 1.5938v5.9844c-0.35547 0.085937-0.89062 0.17969-1.6094 0.28125-0.71094 0.10156-1.5117 0.15625-2.4062 0.15625-0.59375 0-1.1367-0.058594-1.625-0.17188-0.49219-0.10156-0.91406-0.28125-1.2656-0.53125-0.34375-0.25781-0.61719-0.58594-0.8125-0.98438-0.19922-0.40625-0.29688-0.90625-0.29688-1.5 0-0.57031 0.10938-1.0508 0.32812-1.4375 0.22656-0.39453 0.53125-0.71094 0.90625-0.95312 0.375-0.25 0.8125-0.42578 1.3125-0.53125 0.5-0.11328 1.0195-0.17188 1.5625-0.17188 0.25 0 0.51562 0.015625 0.79688 0.046875s0.57812 0.089844 0.89062 0.17188v-0.39062c0-0.25781-0.03125-0.50781-0.09375-0.75-0.0625-0.23828-0.17188-0.44531-0.32812-0.625-0.15625-0.1875-0.36719-0.33203-0.625-0.4375-0.26172-0.10156-0.58984-0.15625-0.98438-0.15625-0.52344 0-1.0078 0.042969-1.4531 0.125-0.4375 0.074219-0.79688 0.16406-1.0781 0.26562l-0.28125-1.8594c0.28906-0.10156 0.71094-0.20312 1.2656-0.29688 0.55078-0.10156 1.1445-0.15625 1.7812-0.15625z"/>
</symbol>
<symbol id="d" overflow="visible">
<path d="m3.9375-1.6406c0.60156 0 1.0391-0.070313 1.3125-0.21875 0.28125-0.14453 0.42188-0.39453 0.42188-0.75 0-0.33203-0.15234-0.60156-0.45312-0.8125-0.29297-0.21875-0.77734-0.45312-1.4531-0.70312-0.41797-0.15625-0.80469-0.31641-1.1562-0.48438-0.34375-0.16406-0.64062-0.36328-0.89062-0.59375-0.25-0.22656-0.44922-0.50391-0.59375-0.82812-0.14844-0.32031-0.21875-0.71094-0.21875-1.1719 0-0.91406 0.33203-1.6328 1-2.1562 0.66406-0.51953 1.5781-0.78125 2.7344-0.78125 0.57031 0 1.125 0.054687 1.6562 0.15625 0.53125 0.10547 0.92969 0.21094 1.2031 0.3125l-0.42188 1.8594c-0.25-0.11328-0.57422-0.21875-0.96875-0.3125-0.38672-0.09375-0.83984-0.14062-1.3594-0.14062-0.46875 0-0.85156 0.078125-1.1406 0.23438-0.29297 0.15625-0.4375 0.40234-0.4375 0.73438 0 0.15625 0.023437 0.30469 0.078125 0.4375 0.0625 0.125 0.16016 0.24219 0.29688 0.34375 0.14453 0.10547 0.33203 0.21484 0.5625 0.32812 0.22656 0.10547 0.50391 0.21484 0.82812 0.32812 0.53906 0.19922 1 0.39844 1.375 0.59375 0.38281 0.19922 0.69531 0.42188 0.9375 0.67188 0.25 0.24219 0.42969 0.51562 0.54688 0.82812 0.11328 0.3125 0.17188 0.69531 0.17188 1.1406 0 0.9375-0.35547 1.6523-1.0625 2.1406-0.69922 0.48828-1.6953 0.73438-2.9844 0.73438-0.875 0-1.5781-0.074219-2.1094-0.21875s-0.90234-0.26562-1.1094-0.35938l0.39062-1.9062c0.34375 0.13672 0.75 0.27344 1.2188 0.40625 0.47656 0.125 1.0195 0.1875 1.625 0.1875z"/>
</symbol>
<symbol id="aj" overflow="visible">
<path d="m0.8125-3.4844c0-0.47656 0.070312-0.91016 0.21875-1.2969 0.14453-0.39453 0.33594-0.75 0.57812-1.0625 0.25-0.3125 0.53516-0.58594 0.85938-0.82812 0.32031-0.23828 0.66016-0.45703 1.0156-0.65625-0.38672-0.39453-0.69531-0.82031-0.92188-1.2812-0.23047-0.45703-0.34375-0.9375-0.34375-1.4375 0-1.0625 0.32031-1.8906 0.96875-2.4844 0.64453-0.59375 1.5-0.89062 2.5625-0.89062 0.53906 0 1.0195 0.078125 1.4375 0.23438 0.42578 0.14844 0.78125 0.35547 1.0625 0.625 0.28125 0.26172 0.48828 0.57422 0.625 0.9375 0.14453 0.35547 0.21875 0.73438 0.21875 1.1406s-0.070312 0.78906-0.20312 1.1406c-0.125 0.35547-0.30469 0.68359-0.53125 0.98438-0.23047 0.29297-0.49219 0.5625-0.78125 0.8125-0.29297 0.24219-0.60938 0.45312-0.95312 0.64062l2.5938 2.6094c0.17578-0.32031 0.32031-0.6875 0.4375-1.0938 0.11328-0.41406 0.20312-0.82031 0.26562-1.2188l1.9062 0.25c-0.0625 0.51172-0.19922 1.0742-0.40625 1.6875-0.19922 0.60547-0.46094 1.1836-0.78125 1.7344 0.41406 0.46875 0.8125 0.95312 1.1875 1.4531 0.38281 0.5 0.70703 0.99609 0.96875 1.4844h-2.3906c-0.125-0.21875-0.28906-0.45312-0.48438-0.70312-0.19922-0.25-0.40234-0.48438-0.60938-0.70312-0.52344 0.46875-1.1172 0.85156-1.7812 1.1406-0.66797 0.28906-1.4219 0.4375-2.2656 0.4375s-1.5547-0.11719-2.125-0.34375c-0.5625-0.22656-1.0234-0.51953-1.375-0.875-0.34375-0.35156-0.58984-0.74219-0.73438-1.1719-0.14844-0.42578-0.21875-0.84766-0.21875-1.2656zm2.2031-0.15625c0 0.21875 0.035156 0.44531 0.10938 0.67188 0.082031 0.23047 0.21094 0.44531 0.39062 0.64062 0.1875 0.1875 0.42578 0.34375 0.71875 0.46875 0.30078 0.125 0.66016 0.1875 1.0781 0.1875 0.57031 0 1.0859-0.082031 1.5469-0.25 0.45703-0.17578 0.85156-0.42969 1.1875-0.76562l-3.3281-3.3906c-0.19922 0.10547-0.39844 0.23047-0.59375 0.375-0.19922 0.13672-0.38281 0.30469-0.54688 0.5-0.16797 0.1875-0.30469 0.41406-0.40625 0.67188-0.10547 0.26172-0.15625 0.55859-0.15625 0.89062zm4.0938-6.75c0-0.36328-0.12109-0.67578-0.35938-0.9375-0.24219-0.25781-0.58594-0.39062-1.0312-0.39062-0.48047 0-0.85156 0.14844-1.1094 0.4375-0.25 0.29297-0.375 0.65625-0.375 1.0938 0 0.375 0.097656 0.74609 0.29688 1.1094 0.20703 0.35547 0.48828 0.69531 0.84375 1.0156 0.23828-0.125 0.46094-0.25781 0.67188-0.40625 0.20703-0.15625 0.39062-0.32812 0.54688-0.51562s0.28125-0.39453 0.375-0.625c0.09375-0.22656 0.14062-0.48828 0.14062-0.78125z"/>
</symbol>
<symbol id="ai" overflow="visible">
<path d="m1.5781 0v-13.109h8.4062v2.0156h-6.0312v3.2344h5.375v2h-5.375v3.8281h6.4844v2.0312z"/>
</symbol>
<symbol id="ah" overflow="visible">
<path d="m9.5312-9.8906c-1.0234 3.7617-2.2031 7.168-3.5469 10.219-0.26172 0.5625-0.52344 1.0469-0.78125 1.4531-0.26172 0.40625-0.55859 0.73828-0.89062 1-0.32422 0.25781-0.6875 0.44531-1.0938 0.5625-0.40625 0.125-0.875 0.1875-1.4062 0.1875-0.35547 0-0.70312-0.039062-1.0469-0.10938-0.34375-0.074219-0.60547-0.15625-0.78125-0.25l0.40625-1.8281c0.45703 0.17578 0.90625 0.26562 1.3438 0.26562 0.59375 0 1.0547-0.14844 1.3906-0.4375 0.34375-0.28125 0.64062-0.71484 0.89062-1.2969-0.71875-1.3945-1.4141-2.9102-2.0781-4.5469-0.65625-1.6445-1.2461-3.3828-1.7656-5.2188h2.4375c0.125 0.53125 0.27344 1.1055 0.45312 1.7188 0.1875 0.61719 0.39062 1.2422 0.60938 1.875 0.21875 0.63672 0.44531 1.2734 0.6875 1.9062 0.23828 0.63672 0.47656 1.2266 0.71875 1.7656 0.39453-1.125 0.76953-2.3203 1.125-3.5938 0.35156-1.2695 0.67578-2.4922 0.96875-3.6719z"/>
</symbol>
<symbol id="ag" overflow="visible">
<path d="m0.4375-6.4531h5.0938v2.0938h-5.0938z"/>
</symbol>
<symbol id="af" overflow="visible">
<path d="m10.281 0c-0.17969-0.51953-0.36719-1.0312-0.5625-1.5312-0.1875-0.50781-0.37109-1.0234-0.54688-1.5469h-5.5156c-0.17969 0.52344-0.35938 1.043-0.54688 1.5625-0.17969 0.51172-0.35547 1.0156-0.53125 1.5156h-2.4844c0.48828-1.3945 0.95312-2.6875 1.3906-3.875 0.44531-1.1875 0.87891-2.3125 1.2969-3.375 0.42578-1.0625 0.84766-2.0703 1.2656-3.0312 0.41406-0.95703 0.84766-1.8984 1.2969-2.8281h2.25c0.4375 0.92969 0.86328 1.8711 1.2812 2.8281 0.41406 0.96094 0.83203 1.9688 1.25 3.0312 0.42578 1.0625 0.86328 2.1875 1.3125 3.375 0.44531 1.1875 0.91406 2.4805 1.4062 3.875zm-3.8594-10.578c-0.29297 0.66797-0.625 1.4805-1 2.4375-0.375 0.96094-0.76562 2-1.1719 3.125h4.3281c-0.40625-1.125-0.80469-2.1719-1.1875-3.1406-0.375-0.96875-0.69922-1.7734-0.96875-2.4219z"/>
</symbol>
<symbol id="j" overflow="visible">
<path d="m0.90625-4.9375c0-0.72656 0.11328-1.4102 0.34375-2.0469 0.22656-0.64453 0.55078-1.1953 0.96875-1.6562 0.42578-0.46875 0.94141-0.83203 1.5469-1.0938 0.60156-0.26953 1.2852-0.40625 2.0469-0.40625 0.92578 0 1.8047 0.17188 2.6406 0.51562l-0.48438 1.8594c-0.27344-0.10156-0.57422-0.19141-0.90625-0.26562-0.33594-0.082031-0.6875-0.125-1.0625-0.125-0.89844 0-1.5781 0.28125-2.0469 0.84375s-0.70312 1.3555-0.70312 2.375c0 0.98047 0.21875 1.7617 0.65625 2.3438 0.44531 0.57422 1.1953 0.85938 2.25 0.85938 0.38281 0 0.76562-0.035156 1.1406-0.10938 0.38281-0.082031 0.71094-0.17969 0.98438-0.29688l0.32812 1.8906c-0.25 0.125-0.63281 0.24219-1.1406 0.34375-0.51172 0.10156-1.0391 0.15625-1.5781 0.15625-0.85547 0-1.5938-0.13281-2.2188-0.39062-0.61719-0.25781-1.1328-0.61719-1.5469-1.0781-0.40625-0.45703-0.71484-1.0039-0.92188-1.6406-0.19922-0.64453-0.29688-1.3359-0.29688-2.0781z"/>
</symbol>
<symbol id="ae" overflow="visible">
<path d="m5.5312 0.15625c-0.69922 0-1.4023-0.027344-2.1094-0.078125-0.71094-0.042969-1.3242-0.12891-1.8438-0.26562v-12.734c0.26953-0.050781 0.5625-0.097656 0.875-0.14062 0.32031-0.039062 0.64453-0.070312 0.96875-0.09375 0.33203-0.03125 0.65625-0.050781 0.96875-0.0625 0.32031-0.019531 0.62891-0.03125 0.92188-0.03125 0.80078 0 1.5391 0.0625 2.2188 0.1875 0.67578 0.11719 1.2656 0.3125 1.7656 0.59375s0.88281 0.65234 1.1562 1.1094c0.28125 0.44922 0.42188 1.0078 0.42188 1.6719 0 0.61719-0.15234 1.1484-0.45312 1.5938-0.29297 0.4375-0.69922 0.79297-1.2188 1.0625 0.78906 0.26172 1.375 0.65234 1.75 1.1719 0.375 0.51172 0.5625 1.168 0.5625 1.9688 0 1.3438-0.49219 2.3555-1.4688 3.0312-0.98047 0.67969-2.4844 1.0156-4.5156 1.0156zm-1.6094-6.0625v4c0.25781 0.023438 0.53906 0.042969 0.84375 0.0625 0.30078 0.011719 0.57812 0.015625 0.82812 0.015625 0.5 0 0.95703-0.03125 1.375-0.09375 0.42578-0.070313 0.78906-0.1875 1.0938-0.34375 0.3125-0.15625 0.55469-0.36328 0.73438-0.625 0.1875-0.26953 0.28125-0.61328 0.28125-1.0312 0-0.73828-0.27344-1.2539-0.8125-1.5469-0.54297-0.28906-1.293-0.4375-2.25-0.4375zm0-1.875h1.6719c0.91406 0 1.6289-0.125 2.1406-0.375 0.51953-0.25781 0.78125-0.72656 0.78125-1.4062 0-0.625-0.27344-1.0664-0.8125-1.3281-0.53125-0.26953-1.2266-0.40625-2.0781-0.40625-0.36719 0-0.69531 0.007813-0.98438 0.015625-0.28125 0.011719-0.52344 0.03125-0.71875 0.0625z"/>
</symbol>
<symbol id="o" overflow="visible">
<path d="m3.7656 0h-2.2969v-9.8906h2.2969zm0.25-12.797c0 0.4375-0.14062 0.78125-0.42188 1.0312s-0.60938 0.375-0.98438 0.375c-0.38672 0-0.71875-0.125-1-0.375s-0.42188-0.59375-0.42188-1.0312 0.14062-0.78125 0.42188-1.0312 0.61328-0.375 1-0.375c0.375 0 0.70312 0.125 0.98438 0.375s0.42188 0.59375 0.42188 1.0312z"/>
</symbol>
<symbol id="n" overflow="visible">
<path d="m3.25-4.9688c0 1 0.23828 1.793 0.71875 2.375 0.47656 0.57422 1.1406 0.85938 1.9844 0.85938 0.375 0 0.6875-0.015625 0.9375-0.046875 0.25781-0.03125 0.47266-0.066406 0.64062-0.10938v-5.6719c-0.19922-0.14453-0.46875-0.27344-0.8125-0.39062-0.33594-0.125-0.6875-0.1875-1.0625-0.1875-0.83594 0-1.4453 0.28906-1.8281 0.85938-0.38672 0.5625-0.57812 1.3359-0.57812 2.3125zm6.5781 4.6719c-0.46094 0.13672-1.0312 0.26172-1.7188 0.375-0.6875 0.11328-1.4141 0.17188-2.1719 0.17188-0.78125 0-1.4844-0.12109-2.1094-0.35938-0.61719-0.23828-1.1406-0.58203-1.5781-1.0312-0.42969-0.44531-0.76172-0.98828-1-1.625-0.23047-0.64453-0.34375-1.3633-0.34375-2.1562 0-0.78125 0.097656-1.4883 0.29688-2.125 0.19531-0.63281 0.48438-1.1758 0.85938-1.625 0.375-0.45703 0.83203-0.8125 1.375-1.0625 0.53906-0.25 1.1641-0.375 1.875-0.375 0.47656 0 0.89844 0.058594 1.2656 0.17188 0.375 0.11719 0.69141 0.24219 0.95312 0.375v-4.75l2.2969-0.375z"/>
</symbol>
<symbol id="i" overflow="visible">
<path d="m7.0938-5.2031c0-1.0312-0.13281-1.7734-0.39062-2.2344-0.26172-0.46875-0.74219-0.70312-1.4375-0.70312-0.26172 0-0.54297 0.023437-0.84375 0.0625-0.30469 0.042969-0.52734 0.074219-0.67188 0.09375v7.9844h-2.2969v-9.5781c0.44531-0.125 1.0234-0.24219 1.7344-0.35938 0.70703-0.11328 1.4609-0.17188 2.2656-0.17188 0.67578 0 1.2344 0.089844 1.6719 0.26562 0.4375 0.17969 0.80078 0.41406 1.0938 0.70312 0.13281-0.10156 0.30469-0.20703 0.51562-0.3125 0.21875-0.11328 0.45703-0.21875 0.71875-0.3125 0.26953-0.10156 0.55078-0.1875 0.84375-0.25 0.30078-0.0625 0.60156-0.09375 0.90625-0.09375 0.76953 0 1.3984 0.11719 1.8906 0.34375 0.5 0.21875 0.89062 0.52734 1.1719 0.92188 0.28906 0.39844 0.48828 0.875 0.59375 1.4375 0.11328 0.5625 0.17188 1.1797 0.17188 1.8438v5.5625h-2.2969v-5.2031c0-1.0312-0.125-1.7734-0.375-2.2344-0.25-0.46875-0.73438-0.70312-1.4531-0.70312-0.375 0-0.73047 0.0625-1.0625 0.1875-0.32422 0.11719-0.5625 0.23047-0.71875 0.34375 0.09375 0.3125 0.16016 0.64844 0.20312 1 0.039063 0.35547 0.0625 0.73438 0.0625 1.1406v5.4688h-2.2969z"/>
</symbol>
<symbol id="f" overflow="visible">
<path d="m5.3438-6.375c-0.375 0-0.73438 0.03125-1.0781 0.09375-0.33594 0.0625-0.64062 0.15625-0.92188 0.28125-0.011719 0.10547-0.023438 0.21875-0.03125 0.34375v0.34375c0 0.5 0.03125 0.97656 0.09375 1.4219 0.070312 0.44922 0.19141 0.83984 0.35938 1.1719 0.17578 0.33594 0.41016 0.60156 0.70312 0.79688 0.30078 0.19922 0.67188 0.29688 1.1094 0.29688 0.36328 0 0.67578-0.070312 0.9375-0.21875 0.25781-0.15625 0.47266-0.35156 0.64062-0.59375 0.16406-0.23828 0.28516-0.5 0.35938-0.78125 0.070313-0.28906 0.10938-0.56641 0.10938-0.82812 0-0.75781-0.18359-1.3359-0.54688-1.7344-0.36719-0.39453-0.94531-0.59375-1.7344-0.59375zm0.28125-1.8125c0.78125 0 1.4414 0.10938 1.9844 0.32812 0.55078 0.21875 0.99219 0.52344 1.3281 0.90625 0.34375 0.375 0.59375 0.8125 0.75 1.3125 0.16406 0.49219 0.25 1.0078 0.25 1.5469 0 0.5-0.089844 1.0117-0.26562 1.5312-0.16797 0.51172-0.43359 0.98047-0.79688 1.4062-0.35547 0.41797-0.80469 0.76172-1.3438 1.0312-0.54297 0.26953-1.1875 0.40625-1.9375 0.40625-1.5 0-2.6484-0.49219-3.4375-1.4844-0.78125-0.98828-1.1719-2.3516-1.1719-4.0938 0-1.2578 0.17969-2.3789 0.54688-3.3594 0.375-0.97656 0.90625-1.8008 1.5938-2.4688 0.6875-0.66406 1.5195-1.1719 2.5-1.5156 0.97656-0.35156 2.082-0.53516 3.3125-0.54688l0.125 1.8906c-0.67969 0.011719-1.3125 0.085937-1.9062 0.21875-0.59375 0.13672-1.125 0.34375-1.5938 0.625-0.46875 0.27344-0.87109 0.63281-1.2031 1.0781-0.33594 0.4375-0.58984 0.97656-0.76562 1.6094 0.61328-0.28125 1.2891-0.42188 2.0312-0.42188z"/>
</symbol>
<symbol id="h" overflow="visible">
<path d="m6.375-10.297c-0.30469 0.36719-0.61719 0.75781-0.9375 1.1719-0.32422 0.41797-0.63672 0.85547-0.9375 1.3125-0.30469 0.44922-0.59375 0.91406-0.875 1.3906-0.27344 0.46875-0.52344 0.9375-0.75 1.4062h3.5zm2.2344-2.8125v8.0938h1.4688v1.875h-1.4688v3.1406h-2.2344v-3.1406h-5.75v-1.625c0.25-0.55078 0.58203-1.1875 1-1.9062 0.42578-0.72656 0.89844-1.4688 1.4219-2.2188 0.51953-0.75781 1.0664-1.5039 1.6406-2.2344 0.58203-0.72656 1.1641-1.3906 1.75-1.9844z"/>
</symbol>
<symbol id="c" overflow="visible">
<path d="m3.5156-5.5625c0 0.4375-0.15234 0.79688-0.45312 1.0781-0.29297 0.28125-0.64844 0.42188-1.0625 0.42188-0.42969 0-0.78906-0.14062-1.0781-0.42188-0.29297-0.28125-0.4375-0.64062-0.4375-1.0781s0.14453-0.79688 0.4375-1.0781c0.28906-0.28906 0.64844-0.4375 1.0781-0.4375 0.41406 0 0.76953 0.14844 1.0625 0.4375 0.30078 0.28125 0.45312 0.64062 0.45312 1.0781z"/>
</symbol>
<symbol id="ad" overflow="visible">
<path d="m1.4531 0v-14.312l2.2969-0.375v4.9062c0.25-0.09375 0.53906-0.17188 0.875-0.23438 0.33203-0.0625 0.66406-0.09375 1-0.09375 0.78906 0 1.4453 0.11719 1.9688 0.34375 0.51953 0.21875 0.9375 0.52734 1.25 0.92188 0.32031 0.39844 0.54688 0.875 0.67188 1.4375 0.13281 0.55469 0.20312 1.168 0.20312 1.8438v5.5625h-2.2812v-5.2031c0-0.53125-0.039062-0.97656-0.10938-1.3438-0.0625-0.375-0.17969-0.67578-0.34375-0.90625-0.15625-0.23828-0.37109-0.41016-0.64062-0.51562-0.26172-0.11328-0.58594-0.17188-0.96875-0.17188-0.30469 0-0.61719 0.03125-0.9375 0.09375-0.3125 0.0625-0.54297 0.12109-0.6875 0.17188v7.875z"/>
</symbol>
<symbol id="ac" overflow="visible">
<path d="m5.4844-14.688c0.53125 0 1 0.046875 1.4062 0.14062s0.70703 0.18359 0.90625 0.26562l-0.4375 1.8906c-0.21875-0.10156-0.46875-0.1875-0.75-0.25s-0.58594-0.09375-0.90625-0.09375c-0.375 0-0.6875 0.058594-0.9375 0.17188-0.25 0.10547-0.45312 0.25-0.60938 0.4375-0.14844 0.1875-0.25 0.41797-0.3125 0.6875-0.0625 0.27344-0.09375 0.5625-0.09375 0.875v0.67188h3.5938v1.9062h-3.5938v7.9844h-2.2969v-10.594c0-1.2695 0.33203-2.2695 1-3 0.67578-0.72656 1.6875-1.0938 3.0312-1.0938z"/>
</symbol>
<symbol id="m" overflow="visible">
<path d="m4.4688 0.28125c-0.34375 0-0.69922-0.023438-1.0625-0.0625-0.35547-0.042969-0.69531-0.10156-1.0156-0.17188-0.32422-0.070312-0.62109-0.14453-0.89062-0.21875-0.26172-0.082031-0.46094-0.16406-0.59375-0.25l0.45312-1.9375c0.26953 0.125 0.65625 0.26562 1.1562 0.42188 0.50781 0.15625 1.1328 0.23438 1.875 0.23438 1 0 1.7188-0.19141 2.1562-0.57812 0.4375-0.38281 0.65625-0.89844 0.65625-1.5469 0-0.41406-0.085937-0.75781-0.25-1.0312-0.16797-0.28125-0.40234-0.50391-0.70312-0.67188-0.29297-0.17578-0.63281-0.29688-1.0156-0.35938-0.38672-0.070313-0.79297-0.10938-1.2188-0.10938h-0.78125v-1.8594h0.95312c0.28125 0 0.56641-0.023437 0.85938-0.078125 0.30078-0.050781 0.57031-0.14844 0.8125-0.29688 0.23828-0.14453 0.42969-0.33594 0.57812-0.57812 0.15625-0.23828 0.23438-0.55078 0.23438-0.9375 0-0.30078-0.058594-0.55469-0.17188-0.76562-0.10547-0.21875-0.25-0.39453-0.4375-0.53125-0.17969-0.14453-0.38672-0.25-0.625-0.3125-0.24219-0.0625-0.49609-0.09375-0.76562-0.09375-0.5625 0-1.0703 0.089844-1.5156 0.26562-0.4375 0.16797-0.82812 0.35938-1.1719 0.57812l-0.82812-1.7031c0.17578-0.11328 0.39062-0.23438 0.64062-0.35938s0.53125-0.24219 0.84375-0.35938c0.3125-0.11328 0.64062-0.20703 0.98438-0.28125 0.35156-0.070312 0.72656-0.10938 1.125-0.10938 0.72656 0 1.3594 0.089844 1.8906 0.26562 0.53125 0.17969 0.96875 0.42969 1.3125 0.75 0.35156 0.32422 0.61328 0.70312 0.78125 1.1406 0.16406 0.4375 0.25 0.91406 0.25 1.4219 0 0.60547-0.16797 1.1484-0.5 1.625-0.33594 0.48047-0.76562 0.85156-1.2969 1.1094 0.6875 0.24219 1.2539 0.63672 1.7031 1.1875 0.44531 0.55469 0.67188 1.2656 0.67188 2.1406 0 0.58594-0.10547 1.125-0.3125 1.625-0.19922 0.49219-0.50781 0.91797-0.92188 1.2812-0.41797 0.35547-0.94531 0.63672-1.5781 0.84375-0.63672 0.20703-1.3984 0.3125-2.2812 0.3125z"/>
</symbol>
<symbol id="ab" overflow="visible">
<path d="m9.8438-3.5156c0 0.54297-0.10156 1.0469-0.29688 1.5156-0.1875 0.46094-0.46875 0.85938-0.84375 1.2031s-0.84375 0.60938-1.4062 0.79688-1.2109 0.28125-1.9375 0.28125c-0.86719 0-1.5859-0.12109-2.1562-0.35938-0.5625-0.23828-1.0156-0.53906-1.3594-0.90625-0.33594-0.36328-0.57422-0.75391-0.71875-1.1719-0.14844-0.42578-0.21875-0.83203-0.21875-1.2188 0-0.375 0.050781-0.72266 0.15625-1.0469 0.11328-0.32031 0.26562-0.61719 0.45312-0.89062 0.1875-0.26953 0.39844-0.51562 0.64062-0.73438 0.23828-0.22656 0.48828-0.42969 0.75-0.60938-0.57422-0.40625-1.0078-0.84375-1.2969-1.3125-0.28125-0.47656-0.42188-1.0547-0.42188-1.7344 0-0.48828 0.097656-0.95703 0.29688-1.4062 0.19531-0.44531 0.47656-0.84375 0.84375-1.1875 0.36328-0.34375 0.80078-0.61328 1.3125-0.8125 0.51953-0.20703 1.0977-0.3125 1.7344-0.3125 0.73828 0 1.3672 0.10938 1.8906 0.32812 0.53125 0.21875 0.96094 0.5 1.2969 0.84375 0.33203 0.33594 0.57031 0.71094 0.71875 1.125 0.15625 0.41797 0.23438 0.82031 0.23438 1.2031 0 0.69922-0.19531 1.3203-0.57812 1.8594-0.375 0.53125-0.80859 0.95312-1.2969 1.2656 0.75 0.40625 1.3008 0.875 1.6562 1.4062 0.36328 0.53125 0.54688 1.1562 0.54688 1.875zm-6.6875 0.10938c0 0.1875 0.035156 0.39062 0.10938 0.60938 0.082031 0.21094 0.21094 0.40234 0.39062 0.57812 0.17578 0.17969 0.39844 0.32812 0.67188 0.45312 0.28125 0.11719 0.62891 0.17188 1.0469 0.17188 0.375 0 0.70312-0.046875 0.98438-0.14062 0.28125-0.10156 0.50391-0.23828 0.67188-0.40625 0.17578-0.17578 0.30469-0.375 0.39062-0.59375 0.09375-0.21875 0.14062-0.44141 0.14062-0.67188 0-0.35156-0.070312-0.66016-0.20312-0.92188-0.13672-0.26953-0.33594-0.5-0.59375-0.6875-0.26172-0.19531-0.57031-0.36719-0.92188-0.51562-0.35547-0.14453-0.74609-0.27344-1.1719-0.39062-0.44922 0.29297-0.8125 0.64844-1.0938 1.0625-0.28125 0.40625-0.42188 0.89062-0.42188 1.4531zm4.125-6.4688c0-0.16406-0.039062-0.34375-0.10938-0.53125-0.0625-0.19531-0.17188-0.37891-0.32812-0.54688-0.15625-0.16406-0.35547-0.30469-0.59375-0.42188-0.24219-0.11328-0.53125-0.17188-0.875-0.17188s-0.64062 0.058594-0.89062 0.17188c-0.24219 0.10547-0.4375 0.24609-0.59375 0.42188-0.14844 0.16797-0.26172 0.35156-0.34375 0.54688-0.074219 0.1875-0.10938 0.375-0.10938 0.5625 0 0.48047 0.17578 0.9375 0.53125 1.375 0.36328 0.42969 0.97266 0.76562 1.8281 1.0156 0.45703-0.28906 0.81641-0.61719 1.0781-0.98438 0.26953-0.375 0.40625-0.85156 0.40625-1.4375z"/>
</symbol>
<symbol id="l" overflow="visible">
<path d="m8.0156-4.9062c0-1.0195-0.23047-1.8125-0.6875-2.375-0.46094-0.57031-1.1992-0.85938-2.2188-0.85938-0.21875 0-0.44531 0.011719-0.67188 0.03125-0.23047 0.023437-0.46094 0.0625-0.6875 0.125v5.6562c0.19531 0.13672 0.46094 0.26562 0.79688 0.39062 0.33203 0.11719 0.69141 0.17188 1.0781 0.17188 0.83203 0 1.4375-0.28125 1.8125-0.84375 0.38281-0.57031 0.57812-1.3359 0.57812-2.2969zm2.3594-0.03125c0 0.76172-0.10156 1.4609-0.29688 2.0938-0.19922 0.625-0.48047 1.168-0.84375 1.625-0.36719 0.44922-0.82422 0.79688-1.375 1.0469-0.55469 0.25-1.1719 0.375-1.8594 0.375-0.46875 0-0.90234-0.058594-1.2969-0.17188-0.38672-0.10156-0.70312-0.22656-0.95312-0.375v3.8438h-2.2969v-13.078c0.46875-0.125 1.0391-0.24219 1.7188-0.35938 0.6875-0.11328 1.4102-0.17188 2.1719-0.17188 0.78125 0 1.4766 0.12109 2.0938 0.35938 0.61328 0.24219 1.1406 0.58594 1.5781 1.0312 0.4375 0.44922 0.76953 0.99609 1 1.6406 0.23828 0.63672 0.35938 1.3516 0.35938 2.1406z"/>
</symbol>
<symbol id="aa" overflow="visible">
<path d="m5.4375-6.7969c0.36328 0 0.71875-0.03125 1.0625-0.09375 0.35156-0.070313 0.66016-0.17578 0.92188-0.3125 0.007813-0.14453 0.015625-0.26562 0.015625-0.35938v-0.26562c0-0.50781-0.039062-0.98828-0.10938-1.4375-0.0625-0.44531-0.18359-0.83594-0.35938-1.1719-0.16797-0.33203-0.40234-0.59375-0.70312-0.78125-0.29297-0.19531-0.65625-0.29688-1.0938-0.29688-0.375 0-0.69531 0.078125-0.95312 0.23438-0.25 0.14844-0.46094 0.33984-0.625 0.57812-0.16797 0.24219-0.28906 0.5-0.35938 0.78125-0.074219 0.27344-0.10938 0.53906-0.10938 0.79688 0 0.77344 0.17969 1.3555 0.54688 1.75 0.375 0.38672 0.96094 0.57812 1.7656 0.57812zm1.7969 1.3906c-0.30469 0.13672-0.64062 0.24609-1.0156 0.32812-0.36719 0.074219-0.71484 0.10938-1.0469 0.10938-0.78125 0-1.4492-0.10156-2-0.3125-0.55469-0.20703-1-0.5-1.3438-0.875s-0.60156-0.80469-0.76562-1.2969c-0.16797-0.48828-0.25-1.0195-0.25-1.5938 0-0.48828 0.082031-0.98828 0.25-1.5 0.16406-0.50781 0.42188-0.97656 0.76562-1.4062 0.35156-0.4375 0.80078-0.78906 1.3438-1.0625 0.55078-0.26953 1.1953-0.40625 1.9375-0.40625 1.5391 0 2.7031 0.5 3.4844 1.5 0.78906 0.99219 1.1875 2.3867 1.1875 4.1875 0 2.543-0.65625 4.4688-1.9688 5.7812s-3.3242 1.9727-6.0312 1.9844l-0.09375-1.9062c0.75 0 1.4297-0.0625 2.0469-0.1875 0.61328-0.125 1.1484-0.32031 1.6094-0.59375 0.45703-0.28125 0.84375-0.64453 1.1562-1.0938 0.32031-0.44531 0.56641-1 0.73438-1.6562z"/>
</symbol>
<symbol id="z" overflow="visible">
<path d="m9.9375-6.5625c0 2.2109-0.40625 3.9023-1.2188 5.0781-0.80469 1.1797-1.918 1.7656-3.3438 1.7656-1.4297 0-2.5469-0.58594-3.3594-1.7656-0.80469-1.1758-1.2031-2.8672-1.2031-5.0781 0-1.1016 0.10156-2.0781 0.3125-2.9219 0.20703-0.85156 0.50781-1.5664 0.90625-2.1406 0.39453-0.58203 0.875-1.0234 1.4375-1.3281 0.5625-0.3125 1.1953-0.46875 1.9062-0.46875 1.4258 0 2.5391 0.59375 3.3438 1.7812 0.8125 1.1797 1.2188 2.8711 1.2188 5.0781zm-2.375 0c0-0.6875-0.039062-1.3203-0.10938-1.9062-0.074219-0.59375-0.19922-1.1094-0.375-1.5469-0.16797-0.4375-0.39062-0.78125-0.67188-1.0312-0.27344-0.25-0.61719-0.375-1.0312-0.375-0.41797 0-0.77344 0.125-1.0625 0.375-0.28125 0.25-0.50781 0.59375-0.67188 1.0312-0.16797 0.4375-0.28906 0.95312-0.35938 1.5469-0.074219 0.58594-0.10938 1.2188-0.10938 1.9062 0 0.67969 0.035156 1.3125 0.10938 1.9062 0.070312 0.59375 0.19141 1.1094 0.35938 1.5469 0.16406 0.4375 0.39062 0.78125 0.67188 1.0312 0.28906 0.25 0.64453 0.375 1.0625 0.375 0.41406 0 0.75781-0.125 1.0312-0.375 0.28125-0.25 0.50391-0.59375 0.67188-1.0312 0.17578-0.4375 0.30078-0.95312 0.375-1.5469 0.070313-0.59375 0.10938-1.2266 0.10938-1.9062z"/>
</symbol>
<symbol id="y" overflow="visible">
<path d="m5.0156-6.6562 2.0938-3.2344h2.4062l-3.25 4.6719c0.67578 0.88672 1.3281 1.7812 1.9531 2.6875 0.625 0.89844 1.1406 1.7422 1.5469 2.5312h-2.4844c-0.11719-0.23828-0.26562-0.50781-0.45312-0.8125-0.17969-0.3125-0.37109-0.63281-0.57812-0.96875-0.21094-0.34375-0.42969-0.67578-0.65625-1-0.21875-0.33203-0.4375-0.64062-0.65625-0.92188-0.4375 0.5625-0.87109 1.1875-1.2969 1.875-0.41797 0.6875-0.76562 1.2969-1.0469 1.8281h-2.3438c0.1875-0.375 0.41016-0.77344 0.67188-1.2031 0.26953-0.4375 0.55469-0.87891 0.85938-1.3281 0.30078-0.44531 0.61328-0.89453 0.9375-1.3438 0.32031-0.44531 0.64062-0.86719 0.95312-1.2656l-3.2812-4.75h2.5156z"/>
</symbol>
</defs>
<g>
<path d="m82.18 29.773c-0.84766 0.69531-2.1914 2.2422-2.8867 3.4844-1.4961 2.4922-2.043 2.6914-2.6914 0.94922-0.64844-1.7461-2.3398-3.2891-3.2383-2.9414-1.4453 0.55078-1.8438 2.043-1.0469 3.8359 2.1445 4.6836 2.4414 11.508 0.69922 15.395-0.59766 1.293-1.2969 2.3906-1.5938 2.3906-0.30078 0-1.1953-1.0469-2.043-2.3906-3.1875-5.0312-14.199-17.039-15.641-17.039-0.69922 0-0.69922 2.3945-0.050781 5.1328 1.3438 5.7773 1.3945 20.074 0 21.469-0.25 0.25-0.5 0.99609-0.5 1.5469 0 0.59766-0.64453 1.6914-1.4922 2.4883-1.5469 1.4961-2.043 3.9844-0.94922 5.082 0.89844 0.89453 0.59766 6.0273-0.49609 8.2188-0.99609 2.0938-0.94531 3.1367 0.25 3.5859 0.49609 0.19922 0.69531 1.1484 0.69531 3.2891 0 3.0898 0.64844 4.4844 2.0938 4.4844 0.34766 0 1.8906-1.1484 3.3867-2.543 3.6875-3.3867 6.875-5.4297 8.5664-5.4297 1.0977 0 1.7461 0.5 3.0898 2.3906 0.94531 1.2969 2.043 2.8906 2.3906 3.5898 1.9922 3.9844 4.0859 4.0352 6.2773 0.14844 0.74609-1.3945 0.84766-13.898 0.10156-14.348-0.25-0.14844-0.5-1.0469-0.5-1.8906 0-1.6445-0.69922-4.7852-1.4453-6.5781-1.4922-3.4844-2.1406-11.258-1.0469-11.953 0.30078-0.15234 0.5-0.69922 0.5-1.1953 0-0.94922 2.6406-2.543 4.2344-2.543 0.44922 0 1.4922-0.39844 2.2422-0.84766 1.3438-0.79688 1.543-0.79688 3.3867 0.050781 2.3398 1.0469 4.0859 0.5 4.0859-1.3945 0-1.3438-1.1484-2.4922-3.4375-3.4375-1.6445-0.69531-1.6445-0.74609-0.64844-1.293 0.54688-0.30078 1.4453-0.55078 1.9922-0.55078 0.94531 0 3.0898-1.9414 3.0898-2.7891 0-0.29688-0.55078-1.0469-1.2461-1.6914-1.1953-1.1484-1.4961-1.1484-5.2305-0.19922-0.99609 0.24609-0.79688-0.10156 1.1445-1.7969 1.6953-1.4922 2.3398-2.4375 2.3398-3.4336 0-2.7422-1.8398-3.2383-4.3828-1.2461zm-23.012 20.523c0 0.49609-0.30078 1.3438-0.69922 1.8906-0.64844 0.84766-0.74609 0.84766-1.0469 0.10156-0.34766-0.89844 0.5-2.8906 1.2461-2.8906 0.30078 0 0.5 0.39844 0.5 0.89844zm10.859 4.9805c1.1445 2.4414 2.0898 4.8828 2.0898 5.4805 0 0.54688 0.25 1.1953 0.5 1.3438 0.29687 0.14844 0.49609 0.94531 0.49609 1.7422s0.19922 1.5469 0.44922 1.6953c0.89844 0.59766 2.1914 14.246 1.793 18.582-0.49609 4.6328-1.543 4.7305-3.7852 0.29688-1.6953-3.2852-4.4844-6.125-6.0781-6.125-1.9414 0-5.1797 1.9414-8.668 5.1289-1.8438 1.7422-3.3359 2.7891-3.6836 2.543-0.75-0.44922-0.30078-4.9844 1.543-15.145 0.29688-1.4961 0.69531-4.7344 0.99609-7.125 0.54687-5.1289 0.69531-5.5273 1.9922-4.832 0.5 0.25 1.9414 0.5 3.1367 0.5 1.8438 0 2.4922-0.25 3.7891-1.5938 1.4414-1.4961 2.5391-4.0352 2.5391-6.0273 0-1.7461 0.84766-0.75 2.8906 3.5352zm-16.539 10.66c-0.14844 0.64844-0.30078 1.6953-0.30078 2.3906v1.2461l-0.74609-1.3945c-0.54688-1.1445-0.59766-1.5938-0.097656-2.3906 0.79688-1.2969 1.543-1.1953 1.1445 0.14844z" fill="#007395"/>
<g fill="#007295">
<use x="91.545" y="90.247" xlink:href="#bb"/>
<use x="145.064301" y="90.247" xlink:href="#ba"/>
<use x="185.982854" y="90.247" xlink:href="#az"/>
<use x="225.546489" y="90.247" xlink:href="#ay"/>
<use x="265.448854" y="90.247" xlink:href="#ax"/>
<use x="301.286461" y="90.247" xlink:href="#aw"/>
<use x="351.215226" y="90.247" xlink:href="#av"/>
</g>
<g fill="#007295">
<use x="47.622" y="141.243" xlink:href="#au"/>
<use x="64.487752" y="141.243" xlink:href="#r"/>
</g>
<g fill="#007295">
<use x="81.616518" y="141.243" xlink:href="#q"/>
<use x="98.909668" y="141.243" xlink:href="#r"/>
</g>
<g fill="#007295">
<use x="124.126104" y="141.243" xlink:href="#aq"/>
<use x="147.994596" y="141.243" xlink:href="#k"/>
<use x="166.767197" y="141.243" xlink:href="#q"/>
</g>
<g fill="#007295">
<use x="183.665826" y="141.243" xlink:href="#k"/>
<use x="202.438427" y="141.243" xlink:href="#ap"/>
<use x="212.20281" y="141.243" xlink:href="#ao"/>
<use x="231.863083" y="141.243" xlink:href="#an"/>
<use x="251.457602" y="141.243" xlink:href="#am"/>
<use x="279.895956" y="141.243" xlink:href="#k"/>
<use x="298.668558" y="141.243" xlink:href="#at"/>
<use x="317.901433" y="141.243" xlink:href="#s"/>
</g>
<g fill="#007295">
<use x="339.304171" y="141.243" xlink:href="#as"/>
<use x="360.706909" y="141.243" xlink:href="#ar"/>
<use x="369.780881" y="141.243" xlink:href="#s"/>
</g>
<g fill="#007295">
<use x="30.666" y="170.135" xlink:href="#al"/>
</g>
<g fill="#007295">
<use x="42.401992" y="170.135" xlink:href="#p"/>
<use x="53.437611" y="170.135" xlink:href="#b"/>
<use x="61.066006" y="170.135" xlink:href="#b"/>
<use x="68.694401" y="170.135" xlink:href="#a"/>
<use x="79.502872" y="170.135" xlink:href="#x"/>
<use x="90.576348" y="170.135" xlink:href="#w"/>
</g>
<g fill="#007295">
<use x="102.89914" y="170.135" xlink:href="#v"/>
<use x="112.609728" y="170.135" xlink:href="#u"/>
<use x="126.352196" y="170.135" xlink:href="#t"/>
</g>
<g fill="#007295">
<use x="143.08545" y="170.135" xlink:href="#ak"/>
<use x="155.200023" y="170.135" xlink:href="#a"/>
<use x="166.008493" y="170.135" xlink:href="#g"/>
<use x="171.630412" y="170.135" xlink:href="#a"/>
<use x="182.438882" y="170.135" xlink:href="#e"/>
<use x="192.546979" y="170.135" xlink:href="#d"/>
<use x="201.197541" y="170.135" xlink:href="#a"/>
</g>
<g fill="#007295">
<use x="216.416473" y="170.135" xlink:href="#aj"/>
</g>
<g fill="#007295">
<use x="233.774385" y="170.135" xlink:href="#ai"/>
<use x="244.86679" y="170.135" xlink:href="#e"/>
<use x="254.974887" y="170.135" xlink:href="#b"/>
<use x="262.603282" y="170.135" xlink:href="#g"/>
<use x="268.225201" y="170.135" xlink:href="#ah"/>
<use x="278.049362" y="170.135" xlink:href="#ag"/>
<use x="284.012004" y="170.135" xlink:href="#af"/>
</g>
<g fill="#007295">
<use x="296.694447" y="170.135" xlink:href="#j"/>
<use x="305.628945" y="170.135" xlink:href="#j"/>
<use x="314.563442" y="170.135" xlink:href="#a"/>
<use x="325.371912" y="170.135" xlink:href="#d"/>
<use x="334.022475" y="170.135" xlink:href="#d"/>
</g>
<g fill="#007295">
<use x="347.083498" y="170.135" xlink:href="#ae"/>
<use x="359.519864" y="170.135" xlink:href="#p"/>
<use x="370.555483" y="170.135" xlink:href="#o"/>
<use x="375.779893" y="170.135" xlink:href="#g"/>
<use x="381.401812" y="170.135" xlink:href="#n"/>
<use x="392.683507" y="170.135" xlink:href="#d"/>
</g>
<g fill="#007295">
<use x="21.552" y="193.049" xlink:href="#e"/>
<use x="31.660097" y="193.049" xlink:href="#i"/>
<use x="48.033699" y="193.049" xlink:href="#n"/>
<use x="59.315395" y="193.049" xlink:href="#f"/>
<use x="70.067078" y="193.049" xlink:href="#h"/>
</g>
<g fill="#007295">
<use x="85.229223" y="193.049" xlink:href="#c"/>
</g>
<g fill="#007295">
<use x="93.614779" y="193.049" xlink:href="#e"/>
<use x="103.722876" y="193.049" xlink:href="#b"/>
<use x="111.351271" y="193.049" xlink:href="#i"/>
<use x="127.724873" y="193.049" xlink:href="#f"/>
<use x="138.476557" y="193.049" xlink:href="#h"/>
</g>
<g fill="#007295">
<use x="153.638702" y="193.049" xlink:href="#c"/>
</g>
<g fill="#007295">
<use x="162.024257" y="193.049" xlink:href="#e"/>
<use x="172.132354" y="193.049" xlink:href="#b"/>
<use x="179.760749" y="193.049" xlink:href="#i"/>
<use x="196.134351" y="193.049" xlink:href="#ad"/>
<use x="207.151041" y="193.049" xlink:href="#ac"/>
</g>
<g fill="#007295">
<use x="219.133111" y="193.049" xlink:href="#c"/>
</g>
<g fill="#007295">
<use x="227.518667" y="193.049" xlink:href="#o"/>
<use x="232.743076" y="193.049" xlink:href="#m"/>
<use x="243.494759" y="193.049" xlink:href="#ab"/>
<use x="254.246443" y="193.049" xlink:href="#f"/>
</g>
<g fill="#007295">
<use x="269.408588" y="193.049" xlink:href="#c"/>
</g>
<g fill="#007295">
<use x="277.794144" y="193.049" xlink:href="#l"/>
<use x="289.07584" y="193.049" xlink:href="#l"/>
<use x="300.357536" y="193.049" xlink:href="#j"/>
<use x="309.292033" y="193.049" xlink:href="#f"/>
<use x="320.043716" y="193.049" xlink:href="#h"/>
<use x="330.7954" y="193.049" xlink:href="#a"/>
<use x="341.60387" y="193.049" xlink:href="#g"/>
</g>
<g fill="#007295">
<use x="351.636251" y="193.049" xlink:href="#c"/>
</g>
<g fill="#007295">
<use x="360.021807" y="193.049" xlink:href="#d"/>
<use x="368.672369" y="193.049" xlink:href="#m"/>
<use x="379.424052" y="193.049" xlink:href="#aa"/>
<use x="390.175735" y="193.049" xlink:href="#z"/>
<use x="400.927419" y="193.049" xlink:href="#y"/>
</g>
</g>
</svg>
