<?xml version="1.0" encoding="utf-8" standalone="no"?>
<!-- Created with Inkscape (http://www.inkscape.org/) -->
<svg xmlns:dc="http://purl.org/dc/elements/1.1/" xmlns:cc="http://creativecommons.org/ns#" xmlns:rdf="http://www.w3.org/1999/02/22-rdf-syntax-ns#" xmlns:svg="http://www.w3.org/2000/svg" xmlns="http://www.w3.org/2000/svg" xmlns:inkscape="http://www.inkscape.org/namespaces/inkscape" version="1.1" width="550" height="85.744385" id="svg2" xml:space="preserve">
<metadata id="metadata8">
<rdf:RDF>
<cc:Work rdf:about="">
<dc:format>image/svg+xml</dc:format>
<dc:type rdf:resource="http://purl.org/dc/dcmitype/StillImage" />
<dc:title />
</cc:Work>
</rdf:RDF>
</metadata>
<defs id="defs6" />
<g transform="matrix(0.0772475,0,0,-0.0772475,0,85.744382)" id="g10" style="fill:#000000;fill-opacity:1;stroke:none">
<path d="m 245,1101 c -17,-4 -42,-15 -55,-23 -14,-9 -36,-19 -50,-23 -33,-10 -60,-34 -60,-54 0,-9 -9,-25 -21,-34 C 44,954 40,942 44,925 47,912 46,898 40,895 21,884 29,792 53,738 85,666 121,627 188,588 c 31,-17 83,-49 116,-70 32,-21 73,-40 92,-44 21,-4 31,-11 28,-19 -3,-7 8,-23 24,-36 41,-33 61,-85 55,-142 -4,-36 -14,-54 -46,-86 C 435,168 401,146 381,140 303,118 168,134 103,172 63,196 33,188 11,147 -10,109 12,65 64,38 121,8 358,-1 441,23 c 102,30 170,112 188,227 8,51 6,71 -19,154 -12,41 -85,136 -103,136 -6,0 -20,9 -31,19 -34,32 -160,99 -199,106 -25,5 -37,13 -37,24 0,9 -16,32 -35,51 -19,19 -35,42 -35,53 0,10 -4,26 -9,36 -14,25 20,93 60,122 19,13 36,27 37,31 6,13 64,8 141,-12 92,-25 110,-25 117,-2 3,9 11,27 17,39 8,18 7,27 -6,41 -35,38 -212,72 -282,53 z" inkscape:connector-curvature="0" id="path12" style="fill:#000000;fill-opacity:1;fill-rule:nonzero;stroke:none" />
<path d="m 4845,1101 c -17,-4 -42,-15 -55,-23 -14,-9 -36,-19 -50,-23 -33,-10 -60,-34 -60,-54 0,-9 -9,-25 -21,-34 -15,-13 -19,-25 -15,-42 3,-13 2,-27 -4,-30 -19,-11 -11,-103 13,-157 32,-72 68,-111 135,-150 31,-17 83,-49 116,-70 32,-21 73,-40 92,-44 21,-4 31,-11 28,-19 -3,-7 8,-23 24,-36 41,-33 61,-85 55,-142 -4,-36 -14,-54 -46,-86 -22,-23 -56,-45 -76,-51 -78,-22 -213,-6 -278,32 -40,24 -70,16 -92,-25 -21,-38 1,-82 53,-109 57,-30 294,-39 377,-15 102,30 170,112 188,227 8,51 6,71 -19,154 -12,41 -85,136 -103,136 -6,0 -20,9 -31,19 -34,32 -160,99 -199,106 -25,5 -37,13 -37,24 0,9 -16,32 -35,51 -19,19 -35,42 -35,53 0,10 -4,26 -9,36 -14,25 20,93 60,122 19,13 36,27 37,31 6,13 64,8 141,-12 92,-25 110,-25 117,-2 3,9 11,27 17,39 8,18 7,27 -6,41 -35,38 -212,72 -282,53 z" inkscape:connector-curvature="0" id="path14" style="fill:#000000;fill-opacity:1;fill-rule:nonzero;stroke:none" />
<path d="m 947,1073 c -58,-17 -70,-39 -36,-65 13,-10 29,-22 34,-26 6,-5 40,-11 75,-14 88,-8 150,-33 150,-62 0,-13 3,-25 6,-29 8,-8 6,-611 -2,-700 -4,-45 -3,-72 5,-80 6,-6 11,-21 11,-32 0,-25 38,-46 69,-38 11,3 24,18 30,37 12,39 18,157 8,173 -4,6 -3,23 3,38 13,33 13,92 0,100 -6,4 -6,15 1,32 6,17 9,122 8,264 -1,130 1,241 4,246 15,24 78,43 144,43 87,0 116,8 110,29 -2,9 2,22 10,29 21,20 15,39 -14,51 -45,18 -556,22 -616,4 z" inkscape:connector-curvature="0" id="path16" style="fill:#000000;fill-opacity:1;fill-rule:nonzero;stroke:none" />
<path d="m 2787,1073 c -58,-17 -70,-39 -36,-65 13,-10 29,-22 34,-26 6,-5 40,-11 75,-14 88,-8 150,-33 150,-62 0,-13 3,-25 6,-29 8,-8 6,-611 -2,-700 -4,-45 -3,-72 5,-80 6,-6 11,-21 11,-32 0,-25 38,-46 69,-38 11,3 24,18 30,37 12,39 18,157 8,173 -4,6 -3,23 3,38 13,33 13,92 0,100 -6,4 -6,15 1,32 6,17 9,122 8,264 -1,130 1,241 4,246 15,24 78,43 144,43 87,0 116,8 110,29 -2,9 2,22 10,29 21,20 15,39 -14,51 -45,18 -556,22 -616,4 z" inkscape:connector-curvature="0" id="path18" style="fill:#000000;fill-opacity:1;fill-rule:nonzero;stroke:none" />
<path d="m 6704,1079 c -37,-10 -118,-103 -110,-124 3,-9 0,-15 -8,-15 -23,0 -86,-101 -86,-137 0,-22 -6,-36 -21,-43 -13,-7 -18,-17 -15,-27 4,-9 -3,-36 -15,-60 -14,-29 -20,-57 -17,-83 2,-22 0,-40 -3,-40 -12,0 -21,-78 -21,-167 1,-94 7,-134 30,-178 45,-88 71,-122 110,-140 20,-9 57,-27 82,-38 37,-18 63,-22 146,-22 90,0 104,3 140,25 21,14 51,32 66,39 44,22 88,87 109,159 28,92 20,242 -16,313 -23,44 -80,109 -97,109 -5,0 -17,9 -27,19 -30,30 -85,41 -212,43 l -115,2 -1,37 c -1,22 4,42 12,49 8,6 19,26 25,44 6,19 33,57 60,87 27,29 57,71 66,92 17,38 17,40 -1,53 -21,16 -36,16 -81,3 z m 148,-500 c 29,-16 76,-68 99,-113 16,-29 21,-59 22,-110 0,-89 -24,-141 -88,-187 -24,-17 -42,-36 -39,-40 3,-5 -34,-9 -81,-9 -49,0 -84,4 -81,9 3,5 -14,21 -38,35 -38,22 -48,36 -75,100 -45,108 -39,184 21,251 16,19 26,35 22,35 -4,0 -3,5 3,11 22,22 201,36 235,18 z" inkscape:connector-curvature="0" id="path20" style="fill:#000000;fill-opacity:1;fill-rule:nonzero;stroke:none" />
<path d="m 3679,1064 c -12,-14 -14,-83 -15,-396 0,-208 3,-381 7,-384 5,-3 6,-18 3,-34 -8,-37 52,-149 99,-184 58,-44 152,-69 243,-64 74,4 88,8 155,47 88,51 126,99 150,191 14,55 17,121 17,427 0,350 0,363 -20,388 -16,20 -28,25 -52,23 -21,-2 -31,-8 -31,-20 0,-9 -8,-24 -16,-35 -16,-18 -17,-75 -10,-598 1,-62 -14,-158 -29,-191 -11,-24 -37,-55 -61,-73 -39,-28 -50,-31 -119,-31 -80,0 -102,9 -148,60 -43,48 -52,76 -53,167 -1,48 -6,100 -11,116 -8,19 -7,31 1,41 13,16 12,160 -1,188 -5,10 -3,28 4,43 9,20 9,31 1,45 -7,10 -9,21 -6,24 4,3 8,43 9,89 3,92 -17,167 -45,167 -9,0 -25,3 -37,6 -13,3 -26,-1 -35,-12 z" inkscape:connector-curvature="0" id="path22" style="fill:#000000;fill-opacity:1;fill-rule:nonzero;stroke:none" />
<path d="m 2097,1052 c -10,-10 -17,-26 -17,-35 0,-9 -9,-31 -20,-50 -11,-19 -22,-52 -24,-73 -1,-22 -8,-50 -15,-62 -7,-12 -9,-27 -6,-32 3,-5 1,-19 -5,-29 -6,-11 -12,-33 -14,-48 -3,-15 -13,-53 -24,-83 -32,-90 -42,-125 -42,-148 0,-11 -4,-24 -10,-27 -5,-3 -10,-17 -10,-31 0,-14 -5,-35 -12,-47 -6,-12 -17,-49 -24,-82 -7,-33 -17,-73 -23,-90 -53,-152 -49,-185 22,-185 23,0 47,4 53,8 14,8 42,73 49,110 2,14 18,39 34,56 30,29 33,30 148,34 114,4 119,3 140,-19 12,-13 36,-58 53,-99 40,-94 45,-100 85,-100 38,0 54,16 56,56 1,39 -15,124 -28,149 -7,11 -17,48 -24,82 -6,35 -18,68 -26,74 -9,8 -11,22 -7,45 4,25 0,43 -15,69 -12,20 -21,47 -21,60 0,13 -11,54 -24,92 -13,37 -27,86 -31,108 -4,21 -12,51 -20,65 -7,14 -17,53 -23,88 -6,34 -18,72 -27,84 -8,13 -15,30 -15,40 0,39 -102,54 -133,20 z m 103,-379 c 24,-64 60,-212 60,-246 0,-39 -18,-47 -111,-47 -85,0 -108,8 -93,31 3,6 7,41 8,78 1,45 7,74 19,91 9,13 17,37 17,52 0,15 5,30 10,33 6,3 10,14 10,24 0,22 19,41 41,41 12,0 24,-18 39,-57 z" inkscape:connector-curvature="0" id="path24" style="fill:#000000;fill-opacity:1;fill-rule:nonzero;stroke:none" />
<path d="m 5797,778 c -43,-12 -52,-25 -62,-88 -6,-39 -3,-48 17,-67 63,-59 145,-50 176,20 25,58 14,110 -29,132 -32,17 -48,17 -102,3 z" inkscape:connector-curvature="0" id="path26" style="fill:#000000;fill-opacity:1;fill-rule:nonzero;stroke:none" />
<path d="m 5781,201 c -60,-32 -68,-91 -19,-152 25,-31 38,-39 64,-39 50,0 84,16 84,40 0,11 7,23 15,26 10,4 15,20 15,49 0,80 -80,118 -159,76 z" inkscape:connector-curvature="0" id="path28" style="fill:#000000;fill-opacity:1;fill-rule:nonzero;stroke:none" />
</g>
</svg>
