<?xml version="1.0" encoding="UTF-8"?>
<svg width="480" height="288" version="1.1" viewBox="0 0 480 288" xmlns="http://www.w3.org/2000/svg">
<defs>
<clipPath id="b">
<path d="m0 0h331v186h-331z"/>
</clipPath>
<clipPath id="a">
<path d="m0 0h3303.8v1859.1h-3303.8z"/>
</clipPath>
</defs>
<g transform="matrix(1.3333 0 0 -1.3333 0 288)">
<g transform="translate(14.5,15)">
<g clip-path="url(#b)">
<g transform="scale(.1)">
<g clip-path="url(#a)">
<path d="m1820.8 54.75c907.45 175.25 1567.5 708.98 1474.2 1192.1-93.29 483.11-904.6 732.72-1812.1 557.48-907.46-175.24-1567.5-708.97-1474.2-1192.1 93.297-483.12 904.59-732.72 1812.1-557.49" fill="#c00"/>
<path d="m2060.9 250.88s468.89-502.36 1214.7-73.891c0 0-670.35 193.17-615.85 520.01l-598.82-446.12" fill="#c00"/>
<path d="m2171.2 367.82s295.87-336.68 709.74-229.6c0 0-357.76 270.4-321.37 433.59l-388.37-203.99" fill="#fff"/>
<path d="m1830 236.62c724.98 76.199 1279 459.13 1237.3 855.27-41.64 396.15-663.12 655.53-1388.1 579.33-724.98-76.19-1279-459.11-1237.3-855.26 41.637-396.16 663.12-655.53 1388.1-579.34" fill="#fff"/>
<path d="m1418.3 920.09s-55.92-101.85 8.93-193.8c0 0 48.22 126.99-8.93 193.8" fill="#fff"/>
<path d="m2617.7 934.07c-4.05 13.223-6.9 25.09-8.56 35.586-4.95 31.494-2.22 57.924 5.64 101.93 14 80.12 64.99 194.53 181.66 210.87 18.31 2.57 40 2.54 62.15-0.49 38.3-5.37 68.73-54.74 78.88-119.23 5.66-35.98 5.28-77.41-2.08-118.29-14.24-78.622-86.62-182.24-157.01-192.09-94.73-11.738-131.35-10.73-160.68 81.711zm218.89 324.89c-34.71-4.86-65.34-85.77-85.55-151.43-19-60.9-42.41-143.87-33.91-197.85 2.35-14.988 8.34-27.949 16.5-36.004 4.81-5.461 9.86-6.281 15.65-5.469 30.86 4.317 64.18 99.414 84.16 166.57 18.03 60.77 35.46 156.68 28.61 200.18-1.65 10.5-3.79 17.86-9.08 20.18-5.54 3.82-11.56 4.52-16.38 3.83" fill="#c00"/>
<path d="m1599.2 852.31s-52.98-69.95-147.37-141.12l34.44 108.52s40.47-55.832 111.22 84.684l1.71-52.086" fill="#c00"/>
<path d="m1772 1285c0.81-24.72-1.66-52.14-7.38-82.29-5.73-30.14-13.42-60.19-23.07-90.1-9.64-29.93-20.17-57.35-31.56-82.23-11.41-24.89-21.62-44.424-30.68-58.564l-1.55 1.984c8.13 73.07 17.23 136.27 27.34 189.58 10.1 53.3 19.81 94.08 29.15 122.3 9.33 28.22 16.68 42.41 22.06 42.56 9.51 0.27 14.75-14.15 15.69-43.24zm-123.02-29.75c-11.51-40.14-23.12-86.72-34.82-139.74-11.71-53.03-21.12-106.57-28.27-160.64-7.15-54.074-9.98-103.44-8.53-148.11 1.5-45.711 8.18-80.402 20.07-104.1 11.88-23.718 24.58-38.668 38.1-44.89 13.5-6.207 25.63-9.168 36.37-8.84 18.54 0.531 40.25 10.562 65.14 30.082 24.87 19.527 77.13 75.301 110.55 121.33l-11.95 48.543c-25.44-35.98-58.61-76.391-73.46-92.91-14.85-16.531-30.31-25.012-46.42-25.492-13.66-0.391-24.52 8.269-32.54 25.992-8.02 17.707-12.47 39.777-13.33 66.18-0.87 26.398-0.7 51.128 0.51 74.214 16.72 26.219 33.28 55.411 49.71 87.579 16.4 32.135 30.58 65.165 42.55 99.055 11.95 33.88 21.33 70.05 28.13 108.54 6.81 38.47 9.57 77.35 8.28 116.6-0.88 27.07-4.14 48.25-9.76 63.5-5.63 15.24-13.48 20.01-23.55 14.3l-91.39-50.42c-5.41-13.72-13.88-40.64-25.39-80.77" fill="#c00"/>
<path d="m1185.5 676.45c-4.06 13.242-6.91 25.09-8.56 35.59-4.96 31.492-2.22 57.922 5.64 101.93 14 80.133 64.97 194.53 181.65 210.87 18.32 2.57 40 2.54 62.16-0.48 38.29-5.37 68.73-54.751 78.87-119.24 5.67-35.984 5.29-77.426-2.08-118.29-14.23-78.621-86.62-182.24-157-192.09-94.74-11.726-131.36-10.726-160.68 81.711zm218.88 324.9c-34.71-4.858-65.33-85.776-85.55-151.44-19-60.898-42.4-143.87-33.9-197.85 2.35-14.989 8.34-27.95 16.5-36.008 4.8-5.449 9.86-6.281 15.64-5.469 30.86 4.328 64.18 99.418 84.16 166.58 18.04 60.762 35.46 156.68 28.62 200.17-1.66 10.5-3.8 17.863-9.09 20.188-5.53 3.82-11.55 4.51-16.38 3.83" fill="#c00"/>
<path d="m587.29 1063.2c39.078 38.12 73.774 62.03 109.57 79.89 19.637 10.11 38.922 17.56 57.375 23.47 96.215 30.77 166.52 3.3 198.5-71.01 2.907-6.75 6.297-14.63 8.371-22.93 8.645-30.54 6.688-50.39-20.125-183.21-2.792-21.387-10.371-45.582-39.003-114.95-3.2-9.988-7.707-20.398-10.914-30.379-9.458-33.769-10.372-45.59-8.157-57.699 1.102-6.051 1.723-10.973 3.66-15.473 9.688-22.519 33.125-31.668 66.075-21.148 61.679 27.418 143.6 122.79 184.92 284.59 27.27 107.36 21.72 176.02 2.33 221.06-20.64 30.54-47.54 37.3-79.17 27.18-10.55-3.36-18.81-8.57-22.14-14.76l-3.81-5.06-4.66-6.62c-1.32-0.42-1.32-0.42-2.15-1.96-1.32-0.43-3.12 0.28-3.6 1.4-0.98 2.25-2.91 6.76-7.28 16.9-1.24 9.84-1.16 20.12 0.24 30.81 4.38 14.21 13.2 28.56 25.76 37.69 13.39 10.7 27.75 19.14 42.25 23.77 40.87 13.07 80.04-1.31 97.69-35.36 11.15-25.9 17.85-51.93 19.62-101.32 2.32-40.25-6.46-93-42.34-208.24-26.29-85.262-61.72-163.2-99.64-221.43-42.91-67.531-63.808-92.152-93.097-118.17-43.653-34.457-73.559-55.551-103.39-66.379-10.547-3.359-21.574-5.609-33.086-6.73-48.207-6.461-93.059 17.621-110.99 59.281-3.872 9.008-6.914 19.57-8.161 29.418-3.988 37.16-1.253 72.609 9.039 107.93l31.153 98.339c7.926 26.872 16.207 56.422 32.41 112.84l7.098 25.325 20.875 87.367c8.144 33.36 8.3 53.9 4.285 66.7-17.93 41.66-48.086 52.51-108.72 33.12-30.18-13.5-56.621-32.21-97.09-81.01" fill="#c00"/>
<path d="m705.84 1175.5c-17.344-24.28-88.719-80.12 31.211-65.89 0 0-183.11-144.68-176.18-57.98 6.938 86.7 144.97 123.87 144.97 123.87" fill="#fff"/>
<path d="m2181.1 747.36 61.97 368.28c-0.48 14.06 4.2 27.68-1.47 49.95l117.68 24.27c3.83-6.98 7.28-12.46 8.81-18.41 1.5-5.93 1.82-15.29-0.18-23.62l-7.75-50.56 5.73 13.92 8.28 16.08c10.07 21.21 19.71 36.03 30.09 47.89 27.27 34.64 48.37 48.99 78.55 56 37.32-0.75 65.48-30.37 74.55-66.02 1.9-7.43 2.82-15.06 2.76-22.94-0.5-14.28-1.37-27.06-3.6-38.59l-12.14-65.74-4.44-23.05-5.64-26.472-10.73-59.11c-1.25-11.308-2.88-21.113-3.75-33.906 2.65-10.391 6.49-17.363 11.14-19.426 12.65 2.942 19.68 7.715 31.48 26.192 5.52 10.722 9.1 20.988 21.54 49.054 6.94 17.332 14.09 37.871 21.29 66.288l6.18 20.3 5.42 23.28c5.41 23.28 7.04 33.1 8.07 41.21 2.06 16.2 2.66 17.91 6.54 18.81 5.26-0.35 6.77-6.29 7.9-10.75 0.16-4.68-1.03-8.09-0.87-12.77l-7.48-39.49-1.78-5.14c-6.08-32.87-14.25-61.503-24.97-92.316-18.47-53.035-30.7-77.91-46.61-100.49-29.66-41.496-49.41-57.086-71.79-62.297-36.41-6.891-67.11 20.57-77.7 62.152-2.26 8.907-3.18 16.551-3.88 27.403-0.42 21.914 1.64 38.125 15.35 105.8 2.22 11.525 5.04 24.765 8.61 35.035l3.04 16.43 16.47 73.03c4.17 11.98 3.48 22.83 1.59 30.25-3.03 11.88-11.14 19.43-19.9 17.39-5.84-1.35-10.33-3.97-22.08-14.57-13.3-12.53-26.3-34.42-44.31-81.08l-12.89-34.45-1.58-1.94-41.9-256.67-125.6-29.211" fill="#c00"/>
<path d="m2023.7 1050.6 19.18 72.82 122.2 38.79-79.92-302.46c-4.19-17.285-5.92-30.894-4.23-40.504 2.42-13.742 12.51-18.562 24.88-18.23 18.91 0.508 37.32 31.16 37.32 31.16 44.81 62.094 89.69 209.38 89.69 209.38 20.34 47.91 41.59 113.57 45.51 114.82 0 0-3.75-29.16-0.84-45.65l-72.06-205.97c-41.73-120.6-91.4-158.37-164.54-180.69-44.78-13.672-68.53 25.886-74.33 58.859-1.21 6.871-1.44 14.051-0.93 22.918-5.17-17.598-50.01-102.92-108.67-121.56-47.63-10.769-81.05 14.899-89.52 62.981-2.18 12.379-2.4 25.359-1.64 38.66 2.76 37.141 7.94 66.348 21.93 109.98 17.2 54.773 114.9 191.7 174.29 217.81 43.99 13.96 55.15-26.01 61.68-63.11zm-106.94-119.56c-14.75-51.094-35.39-121.49-28.86-158.58 1.69-9.621 6.08-16.941 11.92-20.879 4.64-2.883 10.01-4.082 13.92-2.832 26.4 8.383 50.47 82.75 67.41 133.11 17.68 52.039 38.34 134.04 31.32 173.88-1.69 9.62-6.31 18.3-12.9 20.57-27.37-8.69-66.34-86.35-82.81-145.27" fill="#c00"/>
<path d="m3159.9 485.98h-21.25v-52.191h-16.87v52.191h-21.25v13.122h59.37zm88.44-52.191h-18.75v34.691l-20.94-20.628h-5l-20.31 20.41v-34.473h-14.69v65.313h10.63l31.16-31.27 31.02 31.27h6.88v-65.313" fill="#c00"/>
</g>
</g>
</g>
</g>
</g>
</svg>
