<?xml version="1.0" encoding="UTF-8" standalone="no"?>
<svg xmlns="http://www.w3.org/2000/svg" height="216pt" width="360pt" version="1.1" xmlns:xlink="http://www.w3.org/1999/xlink" viewBox="0 0 360 216">
<defs>
<clipPath id="c">
<path d="m0.80859 0.046875h330.38v185.9h-330.38z"/>
</clipPath>
<clipPath id="b">
<path d="m206 116h123v69.95h-123z"/>
</clipPath>
<clipPath id="d">
<rect width="332" height="186"/>
</clipPath>
<g id="a" clip-path="url(#d)">
<g clip-path="url(#c)">
<path fill="#cb0000" d="m182.89 180.48c90.75-17.53 156.75-70.9 147.42-119.21-9.33-48.309-90.46-73.274-181.2-55.747-90.751 17.524-156.75 70.891-147.42 119.21 9.326 48.31 90.458 73.27 181.2 55.75"/>
</g>
<g clip-path="url(#b)">
<path fill="#cb0000" d="m206.9 160.86s46.89 50.25 121.47 7.4c0 0-67.03-19.32-61.58-52l-59.89 44.6"/>
</g>
<path fill="#fff" d="m217.93 149.18s29.58 33.66 70.97 22.96c0 0-35.78-27.05-32.14-43.37l-38.83 20.41"/>
<path fill="#fff" d="m183.8 162.29c72.5-7.61 127.9-45.91 123.74-85.52-4.17-39.622-66.32-65.555-138.81-57.934-72.503 7.613-127.9 45.906-123.74 85.524 4.166 39.62 66.31 65.55 138.81 57.93"/>
<path fill="#fff" d="m142.64 93.945s-5.59 10.185 0.89 19.375c0 0 4.82-12.69-0.89-19.375"/>
<path fill="#cb0000" d="m262.58 92.551c-0.41-1.324-0.69-2.516-0.86-3.563-0.49-3.144-0.22-5.793 0.57-10.191 1.4-8.016 6.5-19.453 18.16-21.086 1.83-0.262 4-0.258 6.22 0.051 3.83 0.535 6.87 5.468 7.88 11.922 0.57 3.593 0.53 7.742-0.2 11.828-1.43 7.859-8.67 18.218-15.71 19.208-9.47 1.17-13.13 1.07-16.06-8.169zm21.88-32.489c-3.46 0.485-6.53 8.575-8.55 15.137-1.9 6.09-4.24 14.391-3.39 19.785 0.23 1.5 0.84 2.797 1.65 3.606 0.48 0.547 0.99 0.629 1.56 0.547 3.09-0.438 6.42-9.946 8.42-16.657 1.8-6.082 3.55-15.668 2.86-20.019-0.16-1.055-0.38-1.785-0.9-2.02-0.56-0.379-1.16-0.453-1.65-0.379"/>
<path fill="#cb0000" d="m160.73 100.73s-5.3 6.99-14.73 14.11l3.44-10.86s4.05 5.59 11.12-8.464l0.17 5.214"/>
<path fill="#cb0000" d="m178.01 57.461c0.08 2.473-0.17 5.215-0.74 8.23-0.57 3.008-1.34 6.02-2.31 9.004-0.96 2.996-2.01 5.743-3.16 8.231-1.14 2.484-2.16 4.437-3.06 5.851l-0.16-0.199c0.81-7.305 1.72-13.629 2.74-18.957 1.01-5.332 1.98-9.406 2.91-12.226 0.93-2.829 1.67-4.247 2.21-4.258 0.95-0.032 1.47 1.418 1.57 4.324zm-12.31 2.977c-1.15 4.007-2.31 8.667-3.48 13.968-1.17 5.309-2.11 10.66-2.83 16.067-0.71 5.41-0.99 10.347-0.85 14.807 0.15 4.58 0.82 8.04 2.01 10.41 1.19 2.38 2.46 3.87 3.81 4.49s2.56 0.92 3.64 0.89c1.85-0.05 4.02-1.06 6.51-3.01s7.71-7.53 11.06-12.13l-1.2-4.86c-2.54 3.6-5.86 7.64-7.35 9.29-1.48 1.66-3.03 2.5-4.64 2.55-1.36 0.04-2.45-0.82-3.25-2.59-0.8-1.78-1.25-3.98-1.33-6.63-0.09-2.63-0.07-5.112 0.05-7.417 1.67-2.625 3.33-5.543 4.97-8.757 1.64-3.211 3.06-6.52 4.25-9.907 1.2-3.386 2.14-7.004 2.82-10.851 0.68-3.852 0.95-7.735 0.82-11.66-0.09-2.707-0.41-4.825-0.97-6.356-0.56-1.519-1.35-2-2.36-1.426l-9.14 5.039c-0.54 1.375-1.38 4.071-2.54 8.083"/>
<path fill="#cb0000" d="m119.36 118.31c-0.4-1.33-0.69-2.51-0.86-3.56-0.49-3.14-0.21-5.79 0.57-10.19 1.4-8.013 6.5-19.455 18.16-21.087 1.84-0.258 4-0.254 6.22 0.047 3.83 0.539 6.87 5.472 7.89 11.921 0.57 3.598 0.53 7.749-0.21 11.829-1.42 7.87-8.66 18.22-15.7 19.21-9.47 1.17-13.14 1.07-16.07-8.17zm21.89-32.494c-3.47 0.493-6.54 8.582-8.55 15.144-1.91 6.09-4.25 14.39-3.4 19.79 0.24 1.5 0.84 2.8 1.65 3.6 0.48 0.55 0.99 0.63 1.57 0.55 3.09-0.44 6.42-9.95 8.41-16.66 1.81-6.08 3.55-15.67 2.87-20.017-0.17-1.051-0.38-1.785-0.91-2.024-0.55-0.379-1.16-0.445-1.64-0.383"/>
<path fill="#cb0000" d="m59.539 79.633c3.906-3.817 7.375-6.203 10.957-7.988 1.961-1.012 3.891-1.758 5.734-2.348 9.625-3.078 16.653-0.328 19.852 7.101 0.289 0.672 0.629 1.457 0.836 2.293 0.867 3.051 0.672 5.039-2.012 18.321-0.277 2.136-1.035 4.558-3.898 11.498-0.32 0.99-0.774 2.04-1.094 3.03-0.945 3.38-1.035 4.57-0.816 5.78 0.113 0.59 0.175 1.09 0.367 1.54 0.969 2.25 3.312 3.16 6.609 2.12 6.166-2.75 14.356-12.28 18.496-28.464 2.72-10.739 2.17-17.606 0.23-22.11-2.07-3.051-4.76-3.726-7.92-2.715-1.06 0.332-1.88 0.86-2.21 1.473l-0.38 0.512-0.47 0.66c-0.13 0.043-0.13 0.043-0.21 0.191-0.14 0.043-0.32-0.023-0.36-0.132-0.1-0.231-0.3-0.676-0.73-1.696-0.13-0.98-0.12-2.008 0.02-3.082 0.44-1.422 1.32-2.851 2.58-3.765 1.34-1.075 2.77-1.914 4.22-2.375 4.09-1.313 8 0.128 9.77 3.535 1.12 2.59 1.78 5.187 1.96 10.133 0.23 4.019-0.64 9.296-4.23 20.824-2.63 8.521-6.17 16.321-9.96 22.141-4.3 6.75-6.39 9.21-9.314 11.82-4.367 3.44-7.355 5.55-10.339 6.64-1.055 0.33-2.157 0.55-3.309 0.66-4.82 0.66-9.305-1.75-11.098-5.92-0.39-0.9-0.691-1.95-0.816-2.95-0.399-3.71-0.125-7.25 0.902-10.79l3.117-9.83c0.793-2.69 1.622-5.64 3.239-11.287l0.711-2.527 2.086-8.738c0.816-3.336 0.832-5.387 0.429-6.668-1.793-4.168-4.808-5.25-10.871-3.317-3.019 1.356-5.66 3.227-9.711 8.106"/>
<path fill="#fff" d="m71.391 68.406c-1.735 2.43-8.871 8.016 3.121 6.59 0 0-18.309 14.469-17.617 5.801 0.695-8.676 14.496-12.391 14.496-12.391"/>
<path fill="#cb0000" d="m218.92 111.22l6.2-36.825c-0.05-1.411 0.42-2.774-0.15-4.997l11.77-2.425c0.38 0.691 0.72 1.246 0.88 1.839 0.15 0.59 0.18 1.528-0.02 2.364l-0.78 5.054 0.58-1.394 0.83-1.606c1-2.125 1.97-3.609 3-4.789 2.73-3.464 4.84-4.902 7.86-5.601 3.73 0.07 6.55 3.039 7.46 6.601 0.18 0.747 0.28 1.504 0.27 2.293-0.05 1.426-0.14 2.707-0.36 3.864l-1.21 6.566-0.45 2.313-0.56 2.64-1.07 5.91c-0.13 1.133-0.29 2.118-0.38 3.395 0.26 1.039 0.65 1.734 1.12 1.941 1.26-0.297 1.97-0.769 3.14-2.621 0.56-1.066 0.91-2.094 2.16-4.902 0.69-1.735 1.41-3.785 2.13-6.629l0.61-2.027 0.55-2.329c0.54-2.332 0.7-3.316 0.8-4.125 0.21-1.621 0.27-1.789 0.66-1.878 0.52 0.035 0.67 0.628 0.79 1.078 0.01 0.465-0.11 0.804-0.09 1.269l-0.75 3.949-0.18 0.516c-0.61 3.285-1.42 6.152-2.49 9.234-1.85 5.301-3.07 7.793-4.66 10.047-2.97 4.155-4.94 5.705-7.18 6.235-3.64 0.68-6.71-2.06-7.77-6.219-0.23-0.895-0.32-1.652-0.39-2.738-0.04-2.196 0.16-3.817 1.53-10.582 0.23-1.157 0.51-2.481 0.87-3.5l0.3-1.649 1.65-7.301c0.41-1.199 0.34-2.285 0.16-3.027-0.31-1.184-1.12-1.937-2-1.734-0.58 0.132-1.03 0.39-2.2 1.457-1.33 1.254-2.63 3.437-4.43 8.101l-1.29 3.45-0.16 0.195-4.19 25.667-12.56 2.92"/>
<path fill="#cb0000" d="m203.18 80.895l1.91-7.29 12.23-3.875-8 30.247c-0.42 1.723-0.59 3.093-0.42 4.043 0.24 1.38 1.25 1.87 2.49 1.83 1.89-0.05 3.73-3.12 3.73-3.12 4.48-6.207 8.97-20.933 8.97-20.933 2.03-4.789 4.16-11.356 4.55-11.481 0 0-0.37 2.914-0.09 4.567l-7.2 20.594c-4.17 12.063-9.14 15.843-16.46 18.073-4.47 1.36-6.85-2.6-7.43-5.89-0.12-0.69-0.14-1.41-0.09-2.3-0.52 1.77-5 10.3-10.87 12.16-4.76 1.08-8.1-1.49-8.95-6.29-0.22-1.25-0.24-2.54-0.16-3.87 0.27-3.71 0.79-6.63 2.19-11.001 1.72-5.472 11.49-19.168 17.43-21.781 4.4-1.39 5.51 2.606 6.17 6.317zm-10.7 11.953c-1.47 5.105-3.53 12.142-2.88 15.852 0.17 0.96 0.6 1.7 1.19 2.09 0.46 0.29 1 0.41 1.39 0.28 2.64-0.84 5.05-8.27 6.74-13.304 1.77-5.204 3.83-13.407 3.13-17.387-0.17-0.965-0.63-1.828-1.29-2.063-2.73 0.875-6.63 8.637-8.28 14.532"/>
<path fill="#cb0000" d="m316.8 137.36h-2.12v5.21h-1.69v-5.21h-2.13v-1.31h5.94zm8.84 5.21h-1.87v-3.46l-2.09 2.06h-0.5l-2.04-2.04v3.44h-1.46v-6.52h1.06l3.12 3.12 3.1-3.12h0.68v6.52"/>
</g>
</defs>
<use xlink:href="#a" transform="translate(14 15)"/>
</svg>
